%
M48
M72
T01C0.0200
T02C0.0236
T03C0.0320
T04C0.0354
T05C0.0400
T06C0.0630
T07C0.0709
%
T01
X10857Y2492
X12507Y2492
X17807Y5792
X21085Y5792
X22557Y7992
X15357Y7992
X18557Y1892
X28507Y3342
X29457Y2242
X31407Y1492
X30757Y992
X30117Y562
X32207Y3492
X18807Y14142
T02
X20057Y13542
X20107Y9742
X26457Y8942
X27357Y8942
X27857Y10142
X26907Y10542
X27357Y10942
X26457Y11342
X29907Y10342
X31107Y10842
X32157Y9842
X30457Y9342
X29857Y9342
X30657Y8842
X29257Y7342
X29157Y4292
X33107Y3942
X25057Y3542
X25057Y2692
X13207Y8492
X11807Y8942
X10657Y7992
X8907Y9342
X7207Y10142
X6807Y10542
X6607Y11342
X5507Y10892
X4907Y10392
X5507Y9892
T03
X5797Y5092
X2797Y5092
X25867Y4062
X25867Y2162
X31477Y15052
X34477Y15052
T04
X23723Y13792
X21991Y13792
T05
X1707Y1202
X3487Y1202
X4417Y1202
X6197Y1202
X7097Y1202
X8877Y1202
X8877Y3762
X7097Y3762
X6197Y3762
X4417Y3762
X3487Y3762
X1707Y3762
X1707Y5092
X1707Y6092
X1707Y7092
X1707Y8092
X1707Y9092
X1707Y10092
X1707Y11092
X1707Y12092
X1707Y13092
X1707Y14092
X1707Y15092
X9175Y14521
X9175Y13521
X34567Y3482
X35567Y3482
X35567Y2482
X34567Y2482
X34567Y1482
X35567Y1482
X35557Y5092
X35557Y6092
X35557Y7092
X35557Y8092
X35557Y9092
X35557Y10092
X35557Y11092
X35557Y12092
X35557Y13092
X35557Y14092
X35557Y15092
T06
X13157Y14812
T07
X13157Y13040
M30
