G75*
G70*
%OFA0B0*%
%FSLAX24Y24*%
%IPPOS*%
%LPD*%
%AMOC8*
5,1,8,0,0,1.08239X$1,22.5*
%
%ADD10C,0.0140*%
%ADD11R,0.0669X0.0591*%
%ADD12R,0.2126X0.2441*%
%ADD13R,0.0394X0.0630*%
%ADD14R,0.1299X0.0512*%
%ADD15R,0.0591X0.0512*%
%ADD16R,0.0600X0.0600*%
%ADD17OC8,0.0600*%
%ADD18R,0.0500X0.0220*%
%ADD19R,0.0220X0.0500*%
%ADD20R,0.0480X0.0880*%
%ADD21R,0.1417X0.0866*%
%ADD22R,0.1150X0.1098*%
%ADD23R,0.0709X0.0669*%
%ADD24R,0.0512X0.0591*%
%ADD25R,0.0630X0.0709*%
%ADD26OC8,0.0520*%
%ADD27C,0.0520*%
%ADD28C,0.0600*%
%ADD29R,0.0945X0.1102*%
%ADD30R,0.0800X0.0260*%
%ADD31R,0.0197X0.0984*%
%ADD32R,0.0787X0.0984*%
%ADD33R,0.0551X0.0709*%
%ADD34C,0.0320*%
%ADD35C,0.0500*%
%ADD36C,0.0360*%
%ADD37C,0.0160*%
%ADD38C,0.0240*%
%ADD39C,0.0396*%
%ADD40C,0.0120*%
%ADD41C,0.0560*%
D10*
X005514Y014412D02*
X005514Y014972D01*
X005327Y014972D02*
X005701Y014972D01*
X005972Y014879D02*
X005972Y014505D01*
X006065Y014412D01*
X006252Y014412D01*
X006345Y014505D01*
X006345Y014879D01*
X006252Y014972D01*
X006065Y014972D01*
X005972Y014879D01*
X006616Y014972D02*
X006896Y014972D01*
X006990Y014879D01*
X006990Y014692D01*
X006896Y014599D01*
X006616Y014599D01*
X006616Y014412D02*
X006616Y014972D01*
D11*
X016515Y014586D03*
X020059Y014586D03*
X020059Y012578D03*
X016515Y012578D03*
D12*
X021387Y001608D03*
D13*
X020489Y004482D03*
X022285Y004482D03*
D14*
X022577Y007302D03*
X020117Y007302D03*
X017807Y007282D03*
X015347Y007282D03*
X013097Y007272D03*
X010637Y007272D03*
D15*
X014207Y006416D03*
X014207Y005668D03*
X024214Y004310D03*
X024214Y003562D03*
X024217Y002706D03*
X024217Y001958D03*
X032437Y002148D03*
X033387Y002148D03*
X033387Y002896D03*
X032437Y002896D03*
X033987Y009488D03*
X033987Y010236D03*
X003157Y010018D03*
X003157Y010766D03*
D16*
X035567Y001482D03*
D17*
X034567Y001482D03*
X034567Y002482D03*
X035567Y002482D03*
X035567Y003482D03*
X034567Y003482D03*
D18*
X031007Y003469D03*
X031007Y003154D03*
X031007Y002839D03*
X031007Y002524D03*
X031007Y002210D03*
X031007Y003784D03*
X031007Y004099D03*
X031007Y004414D03*
X027627Y004414D03*
X027627Y004099D03*
X027627Y003784D03*
X027627Y003469D03*
X027627Y003154D03*
X027627Y002839D03*
X027627Y002524D03*
X027627Y002210D03*
D19*
X028215Y001622D03*
X028530Y001622D03*
X028845Y001622D03*
X029160Y001622D03*
X029475Y001622D03*
X029790Y001622D03*
X030104Y001622D03*
X030419Y001622D03*
X030419Y005002D03*
X030104Y005002D03*
X029790Y005002D03*
X029475Y005002D03*
X029160Y005002D03*
X028845Y005002D03*
X028530Y005002D03*
X028215Y005002D03*
D20*
X012507Y003702D03*
X011597Y003702D03*
X010687Y003702D03*
D21*
X011597Y001262D03*
D22*
X013758Y003352D03*
X017916Y003352D03*
D23*
X011604Y004982D03*
X009990Y004982D03*
D24*
X012433Y009442D03*
X013181Y009442D03*
X013181Y010342D03*
X012433Y010342D03*
X011381Y010342D03*
X010633Y010342D03*
X021983Y009742D03*
X022731Y009742D03*
X023633Y010642D03*
X024381Y010642D03*
X024381Y011542D03*
X023633Y011542D03*
X018531Y001312D03*
X017783Y001312D03*
D25*
X008748Y005012D03*
X007646Y005012D03*
D26*
X005797Y005092D03*
X002797Y005092D03*
X031477Y015052D03*
X034477Y015052D03*
D27*
X025867Y004062D03*
X025867Y002162D03*
D28*
X001707Y001502D02*
X001707Y000902D01*
X003487Y000902D02*
X003487Y001502D01*
X004417Y001502D02*
X004417Y000902D01*
X006197Y000902D02*
X006197Y001502D01*
X007097Y001502D02*
X007097Y000902D01*
X008877Y000902D02*
X008877Y001502D01*
X008877Y003462D02*
X008877Y004062D01*
X007097Y004062D02*
X007097Y003462D01*
X006197Y003462D02*
X006197Y004062D01*
X004417Y004062D02*
X004417Y003462D01*
X003487Y003462D02*
X003487Y004062D01*
X001707Y004062D02*
X001707Y003462D01*
X002007Y005092D02*
X001407Y005092D01*
X001407Y006092D02*
X002007Y006092D01*
X002007Y007092D02*
X001407Y007092D01*
X001407Y008092D02*
X002007Y008092D01*
X002007Y009092D02*
X001407Y009092D01*
X001407Y010092D02*
X002007Y010092D01*
X002007Y011092D02*
X001407Y011092D01*
X001407Y012092D02*
X002007Y012092D01*
X002007Y013092D02*
X001407Y013092D01*
X001407Y014092D02*
X002007Y014092D01*
X002007Y015092D02*
X001407Y015092D01*
X008875Y014521D02*
X009475Y014521D01*
X009475Y013521D02*
X008875Y013521D01*
X035257Y013092D02*
X035857Y013092D01*
X035857Y014092D02*
X035257Y014092D01*
X035257Y015092D02*
X035857Y015092D01*
X035857Y012092D02*
X035257Y012092D01*
X035257Y011092D02*
X035857Y011092D01*
X035857Y010092D02*
X035257Y010092D01*
X035257Y009092D02*
X035857Y009092D01*
X035857Y008092D02*
X035257Y008092D01*
X035257Y007092D02*
X035857Y007092D01*
X035857Y006092D02*
X035257Y006092D01*
X035257Y005092D02*
X035857Y005092D01*
D29*
X015401Y012410D03*
X015401Y014812D03*
X010913Y014812D03*
X010913Y012410D03*
D30*
X008037Y012392D03*
X008037Y011892D03*
X008037Y011392D03*
X008037Y010892D03*
X008037Y010392D03*
X008037Y009892D03*
X008037Y009392D03*
X008037Y008892D03*
X008037Y008392D03*
X008037Y007892D03*
X004077Y007892D03*
X004077Y008392D03*
X004077Y008892D03*
X004077Y009392D03*
X004077Y009892D03*
X004077Y010392D03*
X004077Y010892D03*
X004077Y011392D03*
X004077Y011892D03*
X004077Y012392D03*
X029027Y012342D03*
X029027Y011842D03*
X029027Y011342D03*
X029027Y010842D03*
X029027Y010342D03*
X029027Y009842D03*
X029027Y009342D03*
X029027Y008842D03*
X029027Y008342D03*
X029027Y007842D03*
X032987Y007842D03*
X032987Y008342D03*
X032987Y008842D03*
X032987Y009342D03*
X032987Y009842D03*
X032987Y010342D03*
X032987Y010842D03*
X032987Y011342D03*
X032987Y011842D03*
X032987Y012342D03*
D31*
X023487Y012808D03*
X023172Y012808D03*
X022857Y012808D03*
X022542Y012808D03*
X022227Y012808D03*
D32*
X021085Y012808D03*
X024629Y012808D03*
X024629Y014973D03*
X021085Y014973D03*
D33*
X021388Y011592D03*
X022726Y011592D03*
X022726Y010642D03*
X021388Y010642D03*
D34*
X032437Y002896D02*
X032451Y002902D01*
D35*
X023507Y003642D02*
X021307Y003642D01*
X020489Y004460D01*
X020489Y004482D01*
X020117Y004854D01*
X020117Y007302D01*
X017807Y007282D02*
X017807Y007042D01*
X017807Y010326D01*
X018587Y011106D01*
X020059Y012578D01*
X020057Y012580D01*
X020057Y013542D01*
X019251Y014586D02*
X018807Y014142D01*
X019251Y014586D02*
X020059Y014586D01*
X016515Y014586D02*
X015627Y014586D01*
X015401Y014812D01*
X015924Y013842D02*
X011507Y013842D01*
X010907Y013242D01*
X010907Y012416D01*
X010913Y012410D01*
X015924Y013842D02*
X016515Y013250D01*
X016515Y012578D01*
X015357Y007992D02*
X015347Y007982D01*
X015347Y007282D01*
X015357Y007272D01*
X015357Y005842D01*
X015183Y005668D01*
X014207Y005668D01*
X014207Y006416D02*
X013953Y006416D01*
X013097Y007272D01*
X012457Y007272D01*
X012280Y007272D01*
X009990Y004982D01*
X009960Y005012D01*
X008748Y005012D01*
X007646Y005012D02*
X007097Y004463D01*
X007097Y003762D01*
X010687Y003702D02*
X010687Y002662D01*
X010857Y002492D01*
X011597Y003702D02*
X011604Y004982D01*
X011597Y004932D01*
X011597Y003702D02*
X011597Y001262D01*
X013507Y003092D02*
X013758Y003343D01*
X013758Y003352D01*
X017757Y002092D02*
X017757Y001312D01*
X017783Y001312D01*
X018531Y001312D02*
X018557Y001312D01*
X018557Y001892D01*
X021387Y001892D01*
X021387Y001608D01*
X018181Y002516D02*
X017757Y002092D01*
X018181Y002516D02*
X018181Y003142D01*
X018207Y003168D01*
X018207Y004042D01*
X017807Y004442D01*
X017807Y005792D01*
X017807Y007042D01*
X017807Y007042D01*
X021085Y005792D02*
X022285Y004442D01*
X022285Y004482D01*
X018181Y003352D02*
X018181Y003142D01*
X018181Y003352D02*
X017916Y003352D01*
X022577Y007302D02*
X022577Y007892D01*
X022557Y007992D01*
X010657Y007992D02*
X010637Y007972D01*
X010637Y007272D01*
D36*
X015357Y007992D03*
X017807Y005792D03*
X021085Y005792D03*
X022557Y007992D03*
X028507Y003342D03*
X029457Y002242D03*
X031407Y001492D03*
X030757Y000992D03*
X030117Y000562D03*
X032207Y003492D03*
X018557Y001892D03*
X012507Y002492D03*
X010857Y002492D03*
X018807Y014142D03*
D37*
X021388Y011592D02*
X022227Y012431D01*
X022227Y012808D01*
X022857Y012808D02*
X022857Y011723D01*
X022726Y011592D01*
X021983Y010849D01*
X021983Y009742D01*
X022731Y009742D02*
X024257Y009742D01*
X028207Y005792D01*
X028207Y005010D01*
X028215Y005002D01*
X028507Y005024D02*
X028530Y005002D01*
X028507Y005024D02*
X028507Y005892D01*
X024381Y010018D01*
X024381Y010642D01*
X023633Y010642D02*
X022726Y010642D01*
X023633Y010642D02*
X023633Y011542D01*
X023157Y012018D01*
X023157Y012793D01*
X023172Y012808D01*
X023487Y012808D02*
X023487Y012212D01*
X023607Y012092D01*
X024157Y012092D01*
X024307Y011942D01*
X024307Y011816D01*
X024207Y011716D01*
X024381Y011542D01*
X023633Y011542D02*
X023633Y011666D01*
X022726Y011592D02*
X022726Y011823D01*
X021388Y011592D02*
X021388Y010642D01*
X018587Y011106D02*
X018587Y011167D01*
X010061Y011167D01*
X010061Y014521D01*
X009175Y014521D01*
X009175Y013521D02*
X009175Y011679D01*
X008387Y010892D01*
X008037Y010392D02*
X007557Y010392D01*
X006607Y011342D01*
X005607Y011892D02*
X004607Y012892D01*
X003557Y012892D01*
X002357Y014092D01*
X001707Y014092D01*
X001707Y015092D02*
X002357Y015092D01*
X004007Y013442D01*
X004657Y013442D01*
X005707Y012392D01*
X008037Y012392D01*
X008037Y011892D02*
X005607Y011892D01*
X005507Y010892D02*
X004077Y010892D01*
X003707Y010392D02*
X003357Y010742D01*
X003181Y010742D01*
X003157Y010766D01*
X003707Y010392D02*
X004077Y010392D01*
X003157Y010018D02*
X003131Y009892D01*
X004077Y009892D01*
X004077Y009392D02*
X005957Y009392D01*
X006807Y010242D01*
X006807Y010542D01*
X007207Y010142D02*
X007457Y009892D01*
X008037Y009892D01*
X008037Y009392D02*
X006557Y009392D01*
X004607Y007442D01*
X003007Y007442D01*
X002357Y008092D01*
X001707Y008092D01*
X001707Y009092D02*
X002357Y009092D01*
X003057Y008392D01*
X004077Y008392D01*
X004077Y008892D02*
X003057Y008892D01*
X002557Y009392D01*
X002557Y009892D01*
X002357Y010092D01*
X001707Y010092D01*
X001707Y011092D02*
X002357Y011092D01*
X002657Y011392D01*
X004077Y011392D01*
X004077Y011892D02*
X002607Y011892D01*
X002407Y012092D01*
X001707Y012092D01*
X002357Y013092D02*
X003057Y012392D01*
X004077Y012392D01*
X002357Y013092D02*
X001707Y013092D01*
X006657Y008892D02*
X004857Y007092D01*
X001707Y007092D01*
X002357Y006092D02*
X002957Y006692D01*
X005057Y006692D01*
X006757Y008392D01*
X008037Y008392D01*
X008037Y008892D02*
X006657Y008892D01*
X002357Y006092D02*
X001707Y006092D01*
X009990Y004982D02*
X010007Y004969D01*
X012507Y003702D02*
X012507Y002492D01*
X024217Y002706D02*
X024231Y002692D01*
X025057Y002692D01*
X025857Y003092D02*
X025857Y004052D01*
X025867Y004062D01*
X025619Y004310D01*
X024214Y004310D01*
X024214Y003562D02*
X024234Y003542D01*
X025057Y003542D01*
X025857Y003092D02*
X026424Y002524D01*
X027627Y002524D01*
X027627Y002210D02*
X025915Y002210D01*
X025867Y002162D01*
X025663Y001958D01*
X024217Y001958D01*
X027627Y003142D02*
X027627Y003154D01*
X027920Y003154D01*
X028107Y003342D01*
X028107Y003592D01*
X027915Y003784D01*
X027627Y003784D01*
X028107Y003342D02*
X028507Y003342D01*
X029157Y004292D02*
X029157Y004999D01*
X029160Y005002D01*
X029475Y005002D02*
X029475Y005324D01*
X026907Y007892D01*
X026907Y010542D01*
X027357Y010942D02*
X027357Y008942D01*
X027357Y007842D01*
X029790Y005409D01*
X029790Y005002D01*
X030104Y005002D02*
X030104Y005494D01*
X027857Y007742D01*
X027857Y010142D01*
X028057Y010342D01*
X029027Y010342D01*
X029027Y009842D02*
X028457Y009842D01*
X028157Y009542D01*
X028157Y007842D01*
X030419Y005580D01*
X030419Y005002D01*
X031007Y005392D02*
X031007Y004414D01*
X031020Y003492D02*
X032207Y003492D01*
X032437Y003262D01*
X032437Y002896D01*
X032457Y002916D01*
X032451Y002902D02*
X032467Y002902D01*
X033387Y002896D02*
X033387Y003662D01*
X033107Y003942D01*
X033523Y002992D02*
X033387Y002896D01*
X033523Y002992D02*
X035107Y002992D01*
X035567Y003452D01*
X035567Y003482D01*
X035547Y002482D02*
X035567Y002482D01*
X035547Y002482D02*
X035067Y002002D01*
X035067Y001122D01*
X034907Y000962D01*
X031937Y000962D01*
X031407Y001492D01*
X031007Y001892D01*
X031007Y002210D01*
X030935Y002210D01*
X031007Y002210D02*
X030837Y002200D01*
X030419Y001622D02*
X030419Y001330D01*
X030757Y000992D01*
X031027Y000722D01*
X035307Y000722D01*
X035567Y000982D01*
X035567Y001482D01*
X031020Y003482D02*
X031020Y003492D01*
X031020Y003482D02*
X031007Y003469D01*
X029457Y002242D02*
X029457Y001639D01*
X029475Y001622D01*
X030104Y001622D02*
X030117Y001284D01*
X030117Y000562D01*
X034857Y005092D02*
X035557Y005092D01*
X034857Y005092D02*
X033057Y006892D01*
X032257Y006892D01*
X031307Y007842D01*
X029027Y007842D01*
X029257Y007342D02*
X029257Y007142D01*
X031007Y005392D01*
X032407Y007342D02*
X033557Y007342D01*
X034807Y006092D01*
X035557Y006092D01*
X035557Y007092D02*
X034907Y007092D01*
X034157Y007842D01*
X032987Y007842D01*
X032407Y007342D02*
X031407Y008342D01*
X029027Y008342D01*
X029027Y008842D02*
X030657Y008842D01*
X030457Y009342D02*
X032987Y009342D01*
X032987Y009842D02*
X032157Y009842D01*
X032987Y009842D02*
X033357Y009842D01*
X033757Y009442D01*
X033941Y009442D01*
X033987Y009488D01*
X034657Y008842D02*
X034907Y009092D01*
X035557Y009092D01*
X034657Y008842D02*
X032987Y008842D01*
X032987Y008342D02*
X034657Y008342D01*
X034907Y008092D01*
X035557Y008092D01*
X035557Y010092D02*
X034857Y010092D01*
X034607Y010342D01*
X034607Y010742D01*
X034007Y011342D01*
X032987Y011342D01*
X032987Y010842D02*
X031107Y010842D01*
X030557Y010842D02*
X032457Y012742D01*
X034157Y012742D01*
X034807Y012092D01*
X035557Y012092D01*
X034957Y011092D02*
X034207Y011842D01*
X032987Y011842D01*
X034957Y011092D02*
X035557Y011092D01*
X033987Y010236D02*
X033893Y010342D01*
X033207Y010342D01*
X032987Y010342D01*
X030557Y010842D02*
X029027Y010842D01*
X029027Y011342D02*
X030507Y011342D01*
X032257Y013092D01*
X035557Y013092D01*
X034807Y014092D02*
X034207Y013492D01*
X032157Y013492D01*
X030507Y011842D01*
X029027Y011842D01*
X026457Y011342D02*
X026457Y008942D01*
X034807Y014092D02*
X035557Y014092D01*
D38*
X033207Y010342D02*
X029907Y010342D01*
X029857Y009342D02*
X029027Y009342D01*
X020107Y009742D02*
X020107Y007312D01*
X020117Y007302D01*
X013207Y008492D02*
X013181Y008518D01*
X013181Y009442D01*
X013181Y010342D01*
X012433Y010342D02*
X012433Y009442D01*
X012433Y009168D01*
X012207Y008942D01*
X011807Y008942D01*
X011381Y010342D02*
X012433Y010342D01*
X010633Y010342D02*
X008957Y010342D01*
X008907Y010292D01*
X008907Y010442D01*
X008457Y010892D01*
X008387Y010892D01*
X008037Y010892D01*
X008907Y010292D02*
X008907Y009342D01*
X008907Y005171D01*
X008748Y005012D01*
X012357Y007372D02*
X012457Y007272D01*
X005507Y009892D02*
X004077Y009892D01*
X004077Y010392D02*
X004907Y010392D01*
D39*
X004907Y010392D03*
X005507Y010892D03*
X006607Y011342D03*
X006807Y010542D03*
X007207Y010142D03*
X008907Y009342D03*
X010657Y007992D03*
X011807Y008942D03*
X013207Y008492D03*
X020107Y009742D03*
X020057Y013542D03*
X026457Y011342D03*
X027357Y010942D03*
X026907Y010542D03*
X027857Y010142D03*
X027357Y008942D03*
X026457Y008942D03*
X029257Y007342D03*
X030657Y008842D03*
X030457Y009342D03*
X029857Y009342D03*
X029907Y010342D03*
X031107Y010842D03*
X032157Y009842D03*
X029157Y004292D03*
X033107Y003942D03*
X025057Y003542D03*
X025057Y002692D03*
X005507Y009892D03*
D40*
X023387Y005902D02*
X023437Y000402D01*
X029837Y000402D01*
X029797Y000498D01*
X029797Y000626D01*
X029846Y000743D01*
X029897Y000794D01*
X029897Y001232D01*
X029621Y001232D01*
X029307Y001232D01*
X028992Y001232D01*
X028677Y001232D01*
X028362Y001232D01*
X028047Y001232D01*
X027965Y001314D01*
X027965Y001930D01*
X028047Y002012D01*
X028362Y002012D01*
X028677Y002012D01*
X028992Y002012D01*
X029235Y002012D01*
X029186Y002061D01*
X029137Y002178D01*
X029137Y002306D01*
X029186Y002423D01*
X029276Y002513D01*
X029393Y002562D01*
X029521Y002562D01*
X029638Y002513D01*
X029728Y002423D01*
X029777Y002306D01*
X029777Y002178D01*
X029728Y002061D01*
X029680Y002012D01*
X029936Y002012D01*
X030251Y002012D01*
X030587Y002012D01*
X030669Y001930D01*
X030669Y001391D01*
X030748Y001312D01*
X030821Y001312D01*
X030938Y001263D01*
X031028Y001173D01*
X031077Y001056D01*
X031077Y000983D01*
X031118Y000942D01*
X031646Y000942D01*
X031416Y001172D01*
X031343Y001172D01*
X031226Y001221D01*
X031136Y001311D01*
X031087Y001428D01*
X031087Y001501D01*
X030916Y001672D01*
X030787Y001801D01*
X030787Y001960D01*
X030699Y001960D01*
X030617Y002041D01*
X030617Y002193D01*
X030612Y002278D01*
X030617Y002283D01*
X030617Y002378D01*
X030621Y002381D01*
X030617Y002396D01*
X030617Y002524D01*
X031007Y002524D01*
X031007Y002525D01*
X030617Y002525D01*
X030617Y002653D01*
X030621Y002668D01*
X030617Y002671D01*
X030617Y002986D01*
X030617Y003301D01*
X030617Y003616D01*
X030617Y003931D01*
X030617Y004246D01*
X030617Y004582D01*
X030699Y004664D01*
X030787Y004664D01*
X030787Y005301D01*
X030639Y005448D01*
X030639Y005340D01*
X030669Y005310D01*
X030669Y004694D01*
X030587Y004612D01*
X030272Y004612D01*
X029958Y004612D01*
X029643Y004612D01*
X029377Y004612D01*
X029377Y004550D01*
X029444Y004483D01*
X029495Y004359D01*
X029495Y004225D01*
X029444Y004100D01*
X029349Y004005D01*
X029224Y003954D01*
X029090Y003954D01*
X028966Y004005D01*
X028870Y004100D01*
X028819Y004225D01*
X028819Y004359D01*
X028870Y004483D01*
X028937Y004550D01*
X028937Y004612D01*
X028698Y004612D01*
X028383Y004612D01*
X028047Y004612D01*
X027965Y004694D01*
X027965Y005310D01*
X027987Y005332D01*
X027987Y005701D01*
X027786Y005902D01*
X023387Y005902D01*
X023388Y005813D02*
X027874Y005813D01*
X027987Y005695D02*
X023389Y005695D01*
X023390Y005576D02*
X027987Y005576D01*
X027987Y005458D02*
X023391Y005458D01*
X023392Y005339D02*
X027987Y005339D01*
X027965Y005221D02*
X023393Y005221D01*
X023394Y005102D02*
X027965Y005102D01*
X027965Y004984D02*
X023395Y004984D01*
X023397Y004865D02*
X027965Y004865D01*
X027965Y004747D02*
X023398Y004747D01*
X023399Y004628D02*
X023783Y004628D01*
X023779Y004624D02*
X023779Y003996D01*
X023839Y003936D01*
X023779Y003876D01*
X023779Y003248D01*
X023861Y003166D01*
X024567Y003166D01*
X024649Y003248D01*
X024649Y003322D01*
X024799Y003322D01*
X024866Y003255D01*
X024990Y003204D01*
X025124Y003204D01*
X025249Y003255D01*
X025344Y003350D01*
X025395Y003475D01*
X025395Y003609D01*
X025344Y003733D01*
X025249Y003829D01*
X025124Y003880D01*
X024990Y003880D01*
X024866Y003829D01*
X024799Y003762D01*
X024649Y003762D01*
X024649Y003876D01*
X024589Y003936D01*
X024649Y003996D01*
X024649Y004090D01*
X025467Y004090D01*
X025467Y003982D01*
X025528Y003835D01*
X025637Y003726D01*
X025637Y003001D01*
X025766Y002872D01*
X026208Y002429D01*
X026165Y002429D01*
X026094Y002501D01*
X025947Y002562D01*
X025787Y002562D01*
X025640Y002501D01*
X025528Y002388D01*
X025467Y002241D01*
X025467Y002178D01*
X024652Y002178D01*
X024652Y002272D01*
X024592Y002332D01*
X024652Y002392D01*
X024652Y002472D01*
X024799Y002472D01*
X024866Y002405D01*
X024990Y002354D01*
X025124Y002354D01*
X025249Y002405D01*
X025344Y002500D01*
X025395Y002625D01*
X025395Y002759D01*
X025344Y002883D01*
X025249Y002979D01*
X025124Y003030D01*
X024990Y003030D01*
X024866Y002979D01*
X024799Y002912D01*
X024652Y002912D01*
X024652Y003020D01*
X024570Y003102D01*
X023864Y003102D01*
X023782Y003020D01*
X023782Y002392D01*
X023842Y002332D01*
X023782Y002272D01*
X023782Y001644D01*
X023864Y001562D01*
X024570Y001562D01*
X024652Y001644D01*
X024652Y001738D01*
X025754Y001738D01*
X025781Y001765D01*
X025787Y001762D01*
X025947Y001762D01*
X026094Y001823D01*
X026206Y001935D01*
X026229Y001990D01*
X027289Y001990D01*
X027319Y001960D01*
X027935Y001960D01*
X028017Y002041D01*
X028017Y002378D01*
X028017Y002692D01*
X028013Y002696D01*
X028017Y002711D01*
X028017Y002839D01*
X027627Y002839D01*
X027237Y002839D01*
X027237Y002744D01*
X026516Y002744D01*
X026077Y003183D01*
X026077Y003716D01*
X026094Y003723D01*
X026206Y003835D01*
X026267Y003982D01*
X026267Y004141D01*
X026206Y004288D01*
X026094Y004401D01*
X025947Y004462D01*
X025787Y004462D01*
X025781Y004459D01*
X025710Y004530D01*
X024649Y004530D01*
X024649Y004624D01*
X024567Y004706D01*
X023861Y004706D01*
X023779Y004624D01*
X023779Y004509D02*
X023400Y004509D01*
X023401Y004391D02*
X023779Y004391D01*
X023779Y004272D02*
X023402Y004272D01*
X023403Y004154D02*
X023779Y004154D01*
X023779Y004035D02*
X023404Y004035D01*
X023405Y003917D02*
X023820Y003917D01*
X023779Y003798D02*
X023406Y003798D01*
X023407Y003680D02*
X023779Y003680D01*
X023779Y003561D02*
X023408Y003561D01*
X023409Y003443D02*
X023779Y003443D01*
X023779Y003324D02*
X023411Y003324D01*
X023412Y003205D02*
X023821Y003205D01*
X023849Y003087D02*
X023413Y003087D01*
X023414Y002968D02*
X023782Y002968D01*
X023782Y002850D02*
X023415Y002850D01*
X023416Y002731D02*
X023782Y002731D01*
X023782Y002613D02*
X023417Y002613D01*
X023418Y002494D02*
X023782Y002494D01*
X023798Y002376D02*
X023419Y002376D01*
X023420Y002257D02*
X023782Y002257D01*
X023782Y002139D02*
X023421Y002139D01*
X023422Y002020D02*
X023782Y002020D01*
X023782Y001901D02*
X023423Y001901D01*
X023425Y001783D02*
X023782Y001783D01*
X023782Y001664D02*
X023426Y001664D01*
X023427Y001546D02*
X027965Y001546D01*
X027965Y001664D02*
X024652Y001664D01*
X024652Y002257D02*
X025474Y002257D01*
X025523Y002376D02*
X025177Y002376D01*
X025338Y002494D02*
X025634Y002494D01*
X025390Y002613D02*
X026025Y002613D01*
X026100Y002494D02*
X026144Y002494D01*
X025907Y002731D02*
X025395Y002731D01*
X025358Y002850D02*
X025788Y002850D01*
X025669Y002968D02*
X025259Y002968D01*
X025128Y003205D02*
X025637Y003205D01*
X025637Y003087D02*
X024585Y003087D01*
X024607Y003205D02*
X024986Y003205D01*
X024855Y002968D02*
X024652Y002968D01*
X025317Y003324D02*
X025637Y003324D01*
X025637Y003443D02*
X025382Y003443D01*
X025395Y003561D02*
X025637Y003561D01*
X025637Y003680D02*
X025366Y003680D01*
X025279Y003798D02*
X025565Y003798D01*
X025494Y003917D02*
X024608Y003917D01*
X024649Y004035D02*
X025467Y004035D01*
X025731Y004509D02*
X027237Y004509D01*
X027237Y004582D02*
X027237Y004267D01*
X027237Y003952D01*
X027237Y003616D01*
X027241Y003612D01*
X027237Y003598D01*
X027237Y003470D01*
X027627Y003470D01*
X027627Y003469D01*
X027237Y003469D01*
X027237Y003341D01*
X027241Y003326D01*
X027237Y003322D01*
X027237Y002986D01*
X027241Y002982D01*
X027237Y002968D01*
X027237Y002840D01*
X027627Y002840D01*
X027627Y002839D01*
X027627Y002840D01*
X028017Y002840D01*
X028017Y002941D01*
X028198Y003122D01*
X028274Y003122D01*
X028326Y003071D01*
X028443Y003022D01*
X028571Y003022D01*
X028688Y003071D01*
X028778Y003161D01*
X028827Y003278D01*
X028827Y003406D01*
X028778Y003523D01*
X028688Y003613D01*
X028571Y003662D01*
X028443Y003662D01*
X028327Y003614D01*
X028327Y003683D01*
X028198Y003812D01*
X028017Y003993D01*
X028017Y004267D01*
X028017Y004582D01*
X027935Y004664D01*
X027319Y004664D01*
X027237Y004582D01*
X027283Y004628D02*
X024645Y004628D01*
X024649Y003798D02*
X024835Y003798D01*
X026077Y003680D02*
X027237Y003680D01*
X027237Y003798D02*
X026169Y003798D01*
X026240Y003917D02*
X027237Y003917D01*
X027237Y004035D02*
X026267Y004035D01*
X026262Y004154D02*
X027237Y004154D01*
X027237Y004272D02*
X026213Y004272D01*
X026104Y004391D02*
X027237Y004391D01*
X027971Y004628D02*
X028031Y004628D01*
X028017Y004509D02*
X028896Y004509D01*
X028832Y004391D02*
X028017Y004391D01*
X028017Y004272D02*
X028819Y004272D01*
X028848Y004154D02*
X028017Y004154D01*
X028017Y004035D02*
X028936Y004035D01*
X029379Y004035D02*
X030617Y004035D01*
X030617Y003917D02*
X028093Y003917D01*
X028212Y003798D02*
X030617Y003798D01*
X030617Y003680D02*
X028327Y003680D01*
X028740Y003561D02*
X030617Y003561D01*
X030617Y003443D02*
X028812Y003443D01*
X028827Y003324D02*
X030617Y003324D01*
X030617Y003205D02*
X028797Y003205D01*
X028705Y003087D02*
X030617Y003087D01*
X030617Y002968D02*
X028045Y002968D01*
X028017Y002850D02*
X030617Y002850D01*
X030617Y002731D02*
X028017Y002731D01*
X028017Y002613D02*
X030617Y002613D01*
X030617Y002494D02*
X029657Y002494D01*
X029748Y002376D02*
X030617Y002376D01*
X030613Y002257D02*
X029777Y002257D01*
X029761Y002139D02*
X030617Y002139D01*
X030639Y002020D02*
X029688Y002020D01*
X029226Y002020D02*
X027996Y002020D01*
X028017Y002139D02*
X029153Y002139D01*
X029137Y002257D02*
X028017Y002257D01*
X028017Y002376D02*
X029166Y002376D01*
X029257Y002494D02*
X028017Y002494D01*
X028163Y003087D02*
X028309Y003087D01*
X027237Y003087D02*
X026173Y003087D01*
X026077Y003205D02*
X027237Y003205D01*
X027239Y003324D02*
X026077Y003324D01*
X026077Y003443D02*
X027237Y003443D01*
X027237Y003561D02*
X026077Y003561D01*
X026292Y002968D02*
X027237Y002968D01*
X027237Y002850D02*
X026410Y002850D01*
X026172Y001901D02*
X027965Y001901D01*
X027965Y001783D02*
X025997Y001783D01*
X024937Y002376D02*
X024636Y002376D01*
X023428Y001427D02*
X027965Y001427D01*
X027970Y001309D02*
X023429Y001309D01*
X023430Y001190D02*
X029897Y001190D01*
X029897Y001072D02*
X023431Y001072D01*
X023432Y000953D02*
X029897Y000953D01*
X029897Y000835D02*
X023433Y000835D01*
X023434Y000716D02*
X029835Y000716D01*
X029797Y000598D02*
X023435Y000598D01*
X023436Y000479D02*
X029805Y000479D01*
X030397Y000402D02*
X030437Y000498D01*
X030437Y000626D01*
X030388Y000743D01*
X030337Y000794D01*
X030337Y001101D01*
X030437Y001001D01*
X030437Y000928D01*
X030486Y000811D01*
X030576Y000721D01*
X030693Y000672D01*
X030766Y000672D01*
X030936Y000502D01*
X031118Y000502D01*
X035398Y000502D01*
X035527Y000631D01*
X035787Y000891D01*
X035787Y001042D01*
X035925Y001042D01*
X036007Y001124D01*
X036007Y001840D01*
X035925Y001922D01*
X035298Y001922D01*
X035418Y002042D01*
X035749Y002042D01*
X036007Y002300D01*
X036007Y002664D01*
X035749Y002922D01*
X035385Y002922D01*
X035127Y002664D01*
X035127Y002373D01*
X034976Y002222D01*
X034847Y002093D01*
X034847Y001824D01*
X034749Y001922D01*
X034607Y001922D01*
X034607Y001522D01*
X034527Y001522D01*
X034527Y001922D01*
X034385Y001922D01*
X034127Y001664D01*
X034127Y001522D01*
X034527Y001522D01*
X034527Y001442D01*
X034127Y001442D01*
X034127Y001300D01*
X034245Y001182D01*
X032028Y001182D01*
X031727Y001483D01*
X031727Y001556D01*
X031678Y001673D01*
X031588Y001763D01*
X031471Y001812D01*
X031398Y001812D01*
X031250Y001960D01*
X031315Y001960D01*
X031397Y002041D01*
X031397Y002378D01*
X031393Y002381D01*
X031397Y002396D01*
X031397Y002524D01*
X031007Y002524D01*
X031007Y002525D01*
X031397Y002525D01*
X031397Y002653D01*
X031393Y002668D01*
X031397Y002671D01*
X031397Y002986D01*
X031397Y003272D01*
X031974Y003272D01*
X032019Y003227D01*
X032002Y003210D01*
X032002Y002582D01*
X032064Y002520D01*
X032056Y002516D01*
X032030Y002490D01*
X032011Y002458D01*
X032002Y002422D01*
X032002Y002208D01*
X032377Y002208D01*
X032377Y002088D01*
X032002Y002088D01*
X032002Y001874D01*
X032011Y001838D01*
X032030Y001806D01*
X032056Y001780D01*
X032088Y001761D01*
X032123Y001752D01*
X032377Y001752D01*
X032377Y002088D01*
X032497Y002088D01*
X032497Y002208D01*
X032872Y002208D01*
X032872Y002422D01*
X032863Y002458D01*
X032844Y002490D01*
X032818Y002516D01*
X032811Y002520D01*
X032872Y002582D01*
X032872Y003210D01*
X032790Y003292D01*
X032657Y003292D01*
X032657Y003353D01*
X032528Y003482D01*
X032527Y003483D01*
X032527Y003556D01*
X032478Y003673D01*
X032388Y003763D01*
X032271Y003812D01*
X032143Y003812D01*
X032026Y003763D01*
X031974Y003712D01*
X031397Y003712D01*
X031397Y003931D01*
X031397Y004246D01*
X031397Y004582D01*
X031315Y004664D01*
X031227Y004664D01*
X031227Y005483D01*
X031098Y005612D01*
X030808Y005902D01*
X031497Y005902D01*
X033119Y004280D01*
X033040Y004280D01*
X032916Y004229D01*
X032820Y004133D01*
X032769Y004009D01*
X032769Y003875D01*
X032820Y003750D01*
X032916Y003655D01*
X033040Y003604D01*
X033134Y003604D01*
X033167Y003571D01*
X033167Y003292D01*
X033034Y003292D01*
X032952Y003210D01*
X032952Y002582D01*
X033014Y002520D01*
X033006Y002516D01*
X032980Y002490D01*
X032961Y002458D01*
X032952Y002422D01*
X032952Y002208D01*
X033327Y002208D01*
X033327Y002088D01*
X032952Y002088D01*
X032952Y001874D01*
X032961Y001838D01*
X032980Y001806D01*
X033006Y001780D01*
X033038Y001761D01*
X033073Y001752D01*
X033327Y001752D01*
X033327Y002088D01*
X033447Y002088D01*
X033447Y002208D01*
X033822Y002208D01*
X033822Y002422D01*
X033813Y002458D01*
X033794Y002490D01*
X033768Y002516D01*
X033761Y002520D01*
X033822Y002582D01*
X033822Y002772D01*
X034235Y002772D01*
X034127Y002664D01*
X034127Y002300D01*
X034385Y002042D01*
X034749Y002042D01*
X035007Y002300D01*
X035007Y002664D01*
X034899Y002772D01*
X035198Y002772D01*
X035327Y002901D01*
X035468Y003042D01*
X035749Y003042D01*
X036007Y003300D01*
X036007Y003664D01*
X035749Y003922D01*
X035385Y003922D01*
X035127Y003664D01*
X035127Y003323D01*
X035016Y003212D01*
X034919Y003212D01*
X035007Y003300D01*
X035007Y003664D01*
X034749Y003922D01*
X034385Y003922D01*
X034127Y003664D01*
X034127Y003300D01*
X034215Y003212D01*
X033820Y003212D01*
X033740Y003292D01*
X033607Y003292D01*
X033607Y003571D01*
X033607Y003753D01*
X033445Y003915D01*
X033445Y004009D01*
X033394Y004133D01*
X033299Y004229D01*
X033266Y004242D01*
X036187Y004242D01*
X036187Y000402D01*
X030397Y000402D01*
X030429Y000479D02*
X036187Y000479D01*
X036187Y000598D02*
X035494Y000598D01*
X035612Y000716D02*
X036187Y000716D01*
X036187Y000835D02*
X035731Y000835D01*
X035787Y000953D02*
X036187Y000953D01*
X036187Y001072D02*
X035955Y001072D01*
X036007Y001190D02*
X036187Y001190D01*
X036187Y001309D02*
X036007Y001309D01*
X036007Y001427D02*
X036187Y001427D01*
X036187Y001546D02*
X036007Y001546D01*
X036007Y001664D02*
X036187Y001664D01*
X036187Y001783D02*
X036007Y001783D01*
X035945Y001901D02*
X036187Y001901D01*
X036187Y002020D02*
X035396Y002020D01*
X035011Y002257D02*
X034965Y002257D01*
X035007Y002376D02*
X035127Y002376D01*
X035127Y002494D02*
X035007Y002494D01*
X035007Y002613D02*
X035127Y002613D01*
X035194Y002731D02*
X034940Y002731D01*
X035276Y002850D02*
X035313Y002850D01*
X035395Y002968D02*
X036187Y002968D01*
X036187Y002850D02*
X035821Y002850D01*
X035940Y002731D02*
X036187Y002731D01*
X036187Y002613D02*
X036007Y002613D01*
X036007Y002494D02*
X036187Y002494D01*
X036187Y002376D02*
X036007Y002376D01*
X035965Y002257D02*
X036187Y002257D01*
X036187Y002139D02*
X035846Y002139D01*
X034893Y002139D02*
X034846Y002139D01*
X034847Y002020D02*
X033822Y002020D01*
X033822Y002088D02*
X033822Y001874D01*
X033813Y001838D01*
X033794Y001806D01*
X033768Y001780D01*
X033736Y001761D01*
X033701Y001752D01*
X033447Y001752D01*
X033447Y002088D01*
X033822Y002088D01*
X033822Y002257D02*
X034170Y002257D01*
X034127Y002376D02*
X033822Y002376D01*
X033790Y002494D02*
X034127Y002494D01*
X034127Y002613D02*
X033822Y002613D01*
X033822Y002731D02*
X034194Y002731D01*
X034127Y003324D02*
X033607Y003324D01*
X033607Y003443D02*
X034127Y003443D01*
X034127Y003561D02*
X033607Y003561D01*
X033607Y003680D02*
X034143Y003680D01*
X034261Y003798D02*
X033562Y003798D01*
X033445Y003917D02*
X034380Y003917D01*
X034754Y003917D02*
X035380Y003917D01*
X035261Y003798D02*
X034873Y003798D01*
X034991Y003680D02*
X035143Y003680D01*
X035127Y003561D02*
X035007Y003561D01*
X035007Y003443D02*
X035127Y003443D01*
X035127Y003324D02*
X035007Y003324D01*
X035754Y003917D02*
X036187Y003917D01*
X036187Y004035D02*
X033434Y004035D01*
X033373Y004154D02*
X036187Y004154D01*
X036187Y003798D02*
X035873Y003798D01*
X035991Y003680D02*
X036187Y003680D01*
X036187Y003561D02*
X036007Y003561D01*
X036007Y003443D02*
X036187Y003443D01*
X036187Y003324D02*
X036007Y003324D01*
X035913Y003205D02*
X036187Y003205D01*
X036187Y003087D02*
X035794Y003087D01*
X034288Y002139D02*
X033447Y002139D01*
X033447Y002020D02*
X033327Y002020D01*
X033327Y001901D02*
X033447Y001901D01*
X033447Y001783D02*
X033327Y001783D01*
X033003Y001783D02*
X032821Y001783D01*
X032818Y001780D02*
X032844Y001806D01*
X032863Y001838D01*
X032872Y001874D01*
X032872Y002088D01*
X032497Y002088D01*
X032497Y001752D01*
X032751Y001752D01*
X032786Y001761D01*
X032818Y001780D01*
X032872Y001901D02*
X032952Y001901D01*
X032952Y002020D02*
X032872Y002020D01*
X032872Y002257D02*
X032952Y002257D01*
X032952Y002376D02*
X032872Y002376D01*
X032840Y002494D02*
X032984Y002494D01*
X032952Y002613D02*
X032872Y002613D01*
X032872Y002731D02*
X032952Y002731D01*
X032952Y002850D02*
X032872Y002850D01*
X032872Y002968D02*
X032952Y002968D01*
X032952Y003087D02*
X032872Y003087D01*
X032872Y003205D02*
X032952Y003205D01*
X033167Y003324D02*
X032657Y003324D01*
X032567Y003443D02*
X033167Y003443D01*
X033167Y003561D02*
X032525Y003561D01*
X032472Y003680D02*
X032891Y003680D01*
X032801Y003798D02*
X032304Y003798D01*
X032110Y003798D02*
X031397Y003798D01*
X031397Y003917D02*
X032769Y003917D01*
X032780Y004035D02*
X031397Y004035D01*
X031397Y004154D02*
X032841Y004154D01*
X033021Y004272D02*
X031397Y004272D01*
X031397Y004391D02*
X033008Y004391D01*
X032889Y004509D02*
X031397Y004509D01*
X031351Y004628D02*
X032771Y004628D01*
X032652Y004747D02*
X031227Y004747D01*
X031227Y004865D02*
X032534Y004865D01*
X032415Y004984D02*
X031227Y004984D01*
X031227Y005102D02*
X032297Y005102D01*
X032178Y005221D02*
X031227Y005221D01*
X031227Y005339D02*
X032060Y005339D01*
X031941Y005458D02*
X031227Y005458D01*
X031134Y005576D02*
X031823Y005576D01*
X031704Y005695D02*
X031015Y005695D01*
X030897Y005813D02*
X031586Y005813D01*
X030749Y005339D02*
X030640Y005339D01*
X030669Y005221D02*
X030787Y005221D01*
X030787Y005102D02*
X030669Y005102D01*
X030669Y004984D02*
X030787Y004984D01*
X030787Y004865D02*
X030669Y004865D01*
X030669Y004747D02*
X030787Y004747D01*
X030663Y004628D02*
X030604Y004628D01*
X030617Y004509D02*
X029418Y004509D01*
X029482Y004391D02*
X030617Y004391D01*
X030617Y004272D02*
X029495Y004272D01*
X029466Y004154D02*
X030617Y004154D01*
X031397Y003205D02*
X032002Y003205D01*
X032002Y003087D02*
X031397Y003087D01*
X031397Y002968D02*
X032002Y002968D01*
X032002Y002850D02*
X031397Y002850D01*
X031397Y002731D02*
X032002Y002731D01*
X032002Y002613D02*
X031397Y002613D01*
X031397Y002494D02*
X032034Y002494D01*
X032002Y002376D02*
X031397Y002376D01*
X031397Y002257D02*
X032002Y002257D01*
X032002Y002020D02*
X031376Y002020D01*
X031397Y002139D02*
X032377Y002139D01*
X032377Y002020D02*
X032497Y002020D01*
X032497Y001901D02*
X032377Y001901D01*
X032377Y001783D02*
X032497Y001783D01*
X032053Y001783D02*
X031541Y001783D01*
X031682Y001664D02*
X034127Y001664D01*
X034127Y001546D02*
X031727Y001546D01*
X031783Y001427D02*
X034127Y001427D01*
X034127Y001309D02*
X031901Y001309D01*
X032020Y001190D02*
X034236Y001190D01*
X034527Y001546D02*
X034607Y001546D01*
X034607Y001664D02*
X034527Y001664D01*
X034527Y001783D02*
X034607Y001783D01*
X034607Y001901D02*
X034527Y001901D01*
X034364Y001901D02*
X033822Y001901D01*
X033771Y001783D02*
X034246Y001783D01*
X034770Y001901D02*
X034847Y001901D01*
X033327Y002139D02*
X032497Y002139D01*
X032002Y001901D02*
X031309Y001901D01*
X031042Y001546D02*
X030669Y001546D01*
X030669Y001664D02*
X030923Y001664D01*
X030805Y001783D02*
X030669Y001783D01*
X030669Y001901D02*
X030787Y001901D01*
X030669Y001427D02*
X031087Y001427D01*
X031138Y001309D02*
X030828Y001309D01*
X031011Y001190D02*
X031299Y001190D01*
X031516Y001072D02*
X031070Y001072D01*
X031107Y000953D02*
X031635Y000953D01*
X030840Y000598D02*
X030437Y000598D01*
X030400Y000716D02*
X030587Y000716D01*
X030476Y000835D02*
X030337Y000835D01*
X030337Y000953D02*
X030437Y000953D01*
X030366Y001072D02*
X030337Y001072D01*
D41*
X013507Y003092D02*
X013507Y004392D01*
X013007Y004892D01*
X011600Y004892D01*
X011604Y004982D01*
M02*
