G75*
G70*
%OFA0B0*%
%FSLAX24Y24*%
%IPPOS*%
%LPD*%
%AMOC8*
5,1,8,0,0,1.08239X$1,22.5*
%
%ADD10C,0.0000*%
D10*
X000907Y000242D02*
X000907Y015882D01*
X036347Y015882D01*
X036347Y000242D01*
X000907Y000242D01*
X012803Y013040D02*
X012805Y013077D01*
X012811Y013114D01*
X012820Y013149D01*
X012834Y013184D01*
X012850Y013217D01*
X012871Y013248D01*
X012894Y013277D01*
X012920Y013303D01*
X012949Y013326D01*
X012980Y013347D01*
X013013Y013363D01*
X013048Y013377D01*
X013083Y013386D01*
X013120Y013392D01*
X013157Y013394D01*
X013194Y013392D01*
X013231Y013386D01*
X013266Y013377D01*
X013301Y013363D01*
X013334Y013347D01*
X013365Y013326D01*
X013394Y013303D01*
X013420Y013277D01*
X013443Y013248D01*
X013464Y013217D01*
X013480Y013184D01*
X013494Y013149D01*
X013503Y013114D01*
X013509Y013077D01*
X013511Y013040D01*
X013509Y013003D01*
X013503Y012966D01*
X013494Y012931D01*
X013480Y012896D01*
X013464Y012863D01*
X013443Y012832D01*
X013420Y012803D01*
X013394Y012777D01*
X013365Y012754D01*
X013334Y012733D01*
X013301Y012717D01*
X013266Y012703D01*
X013231Y012694D01*
X013194Y012688D01*
X013157Y012686D01*
X013120Y012688D01*
X013083Y012694D01*
X013048Y012703D01*
X013013Y012717D01*
X012980Y012733D01*
X012949Y012754D01*
X012920Y012777D01*
X012894Y012803D01*
X012871Y012832D01*
X012850Y012863D01*
X012834Y012896D01*
X012820Y012931D01*
X012811Y012966D01*
X012805Y013003D01*
X012803Y013040D01*
X012842Y014812D02*
X012844Y014847D01*
X012850Y014882D01*
X012860Y014916D01*
X012873Y014949D01*
X012890Y014980D01*
X012911Y015008D01*
X012934Y015035D01*
X012961Y015058D01*
X012989Y015079D01*
X013020Y015096D01*
X013053Y015109D01*
X013087Y015119D01*
X013122Y015125D01*
X013157Y015127D01*
X013192Y015125D01*
X013227Y015119D01*
X013261Y015109D01*
X013294Y015096D01*
X013325Y015079D01*
X013353Y015058D01*
X013380Y015035D01*
X013403Y015008D01*
X013424Y014980D01*
X013441Y014949D01*
X013454Y014916D01*
X013464Y014882D01*
X013470Y014847D01*
X013472Y014812D01*
X013470Y014777D01*
X013464Y014742D01*
X013454Y014708D01*
X013441Y014675D01*
X013424Y014644D01*
X013403Y014616D01*
X013380Y014589D01*
X013353Y014566D01*
X013325Y014545D01*
X013294Y014528D01*
X013261Y014515D01*
X013227Y014505D01*
X013192Y014499D01*
X013157Y014497D01*
X013122Y014499D01*
X013087Y014505D01*
X013053Y014515D01*
X013020Y014528D01*
X012989Y014545D01*
X012961Y014566D01*
X012934Y014589D01*
X012911Y014616D01*
X012890Y014644D01*
X012873Y014675D01*
X012860Y014708D01*
X012850Y014742D01*
X012844Y014777D01*
X012842Y014812D01*
X021814Y013792D02*
X021816Y013818D01*
X021822Y013844D01*
X021832Y013869D01*
X021845Y013892D01*
X021861Y013912D01*
X021881Y013930D01*
X021903Y013945D01*
X021926Y013957D01*
X021952Y013965D01*
X021978Y013969D01*
X022004Y013969D01*
X022030Y013965D01*
X022056Y013957D01*
X022080Y013945D01*
X022101Y013930D01*
X022121Y013912D01*
X022137Y013892D01*
X022150Y013869D01*
X022160Y013844D01*
X022166Y013818D01*
X022168Y013792D01*
X022166Y013766D01*
X022160Y013740D01*
X022150Y013715D01*
X022137Y013692D01*
X022121Y013672D01*
X022101Y013654D01*
X022079Y013639D01*
X022056Y013627D01*
X022030Y013619D01*
X022004Y013615D01*
X021978Y013615D01*
X021952Y013619D01*
X021926Y013627D01*
X021902Y013639D01*
X021881Y013654D01*
X021861Y013672D01*
X021845Y013692D01*
X021832Y013715D01*
X021822Y013740D01*
X021816Y013766D01*
X021814Y013792D01*
X023546Y013792D02*
X023548Y013818D01*
X023554Y013844D01*
X023564Y013869D01*
X023577Y013892D01*
X023593Y013912D01*
X023613Y013930D01*
X023635Y013945D01*
X023658Y013957D01*
X023684Y013965D01*
X023710Y013969D01*
X023736Y013969D01*
X023762Y013965D01*
X023788Y013957D01*
X023812Y013945D01*
X023833Y013930D01*
X023853Y013912D01*
X023869Y013892D01*
X023882Y013869D01*
X023892Y013844D01*
X023898Y013818D01*
X023900Y013792D01*
X023898Y013766D01*
X023892Y013740D01*
X023882Y013715D01*
X023869Y013692D01*
X023853Y013672D01*
X023833Y013654D01*
X023811Y013639D01*
X023788Y013627D01*
X023762Y013619D01*
X023736Y013615D01*
X023710Y013615D01*
X023684Y013619D01*
X023658Y013627D01*
X023634Y013639D01*
X023613Y013654D01*
X023593Y013672D01*
X023577Y013692D01*
X023564Y013715D01*
X023554Y013740D01*
X023548Y013766D01*
X023546Y013792D01*
M02*
