G75*
G70*
%OFA0B0*%
%FSLAX24Y24*%
%IPPOS*%
%LPD*%
%AMOC8*
5,1,8,0,0,1.08239X$1,22.5*
%
%ADD10C,0.0140*%
%ADD11R,0.0600X0.0600*%
%ADD12OC8,0.0600*%
%ADD13OC8,0.0520*%
%ADD14C,0.0520*%
%ADD15C,0.0600*%
%ADD16C,0.0120*%
%ADD17C,0.0360*%
%ADD18C,0.0396*%
%ADD19C,0.0240*%
%ADD20C,0.0500*%
%ADD21C,0.0160*%
%ADD22C,0.0400*%
D10*
X004391Y014412D02*
X004391Y014972D01*
X004578Y014786D01*
X004764Y014972D01*
X004764Y014412D01*
X005035Y014505D02*
X005035Y014879D01*
X005129Y014972D01*
X005316Y014972D01*
X005409Y014879D01*
X005409Y014505D01*
X005316Y014412D01*
X005129Y014412D01*
X005035Y014505D01*
X005680Y014972D02*
X006054Y014972D01*
X005867Y014972D02*
X005867Y014412D01*
X006511Y014412D02*
X006511Y014972D01*
X006698Y014972D02*
X006324Y014972D01*
X006969Y014879D02*
X006969Y014505D01*
X007062Y014412D01*
X007249Y014412D01*
X007343Y014505D01*
X007343Y014879D01*
X007249Y014972D01*
X007062Y014972D01*
X006969Y014879D01*
X007613Y014879D02*
X007613Y014786D01*
X007707Y014692D01*
X007987Y014692D01*
X007987Y014412D02*
X007987Y014972D01*
X007707Y014972D01*
X007613Y014879D01*
X007707Y014692D02*
X007613Y014599D01*
X007613Y014505D01*
X007707Y014412D01*
X007987Y014412D01*
D11*
X035567Y001482D03*
D12*
X034567Y001482D03*
X034567Y002482D03*
X035567Y002482D03*
X035567Y003482D03*
X034567Y003482D03*
D13*
X034477Y015052D03*
X031477Y015052D03*
X005797Y005092D03*
X002797Y005092D03*
D14*
X025867Y004062D03*
X025867Y002162D03*
D15*
X035257Y005092D02*
X035857Y005092D01*
X035857Y006092D02*
X035257Y006092D01*
X035257Y007092D02*
X035857Y007092D01*
X035857Y008092D02*
X035257Y008092D01*
X035257Y009092D02*
X035857Y009092D01*
X035857Y010092D02*
X035257Y010092D01*
X035257Y011092D02*
X035857Y011092D01*
X035857Y012092D02*
X035257Y012092D01*
X035257Y013092D02*
X035857Y013092D01*
X035857Y014092D02*
X035257Y014092D01*
X035257Y015092D02*
X035857Y015092D01*
X009475Y014521D02*
X008875Y014521D01*
X008875Y013521D02*
X009475Y013521D01*
X002007Y013092D02*
X001407Y013092D01*
X001407Y014092D02*
X002007Y014092D01*
X002007Y015092D02*
X001407Y015092D01*
X001407Y012092D02*
X002007Y012092D01*
X002007Y011092D02*
X001407Y011092D01*
X001407Y010092D02*
X002007Y010092D01*
X002007Y009092D02*
X001407Y009092D01*
X001407Y008092D02*
X002007Y008092D01*
X002007Y007092D02*
X001407Y007092D01*
X001407Y006092D02*
X002007Y006092D01*
X002007Y005092D02*
X001407Y005092D01*
X001707Y004062D02*
X001707Y003462D01*
X003487Y003462D02*
X003487Y004062D01*
X004417Y004062D02*
X004417Y003462D01*
X006197Y003462D02*
X006197Y004062D01*
X007097Y004062D02*
X007097Y003462D01*
X008877Y003462D02*
X008877Y004062D01*
X008877Y001502D02*
X008877Y000902D01*
X007097Y000902D02*
X007097Y001502D01*
X006197Y001502D02*
X006197Y000902D01*
X004417Y000902D02*
X004417Y001502D01*
X003487Y001502D02*
X003487Y000902D01*
X001707Y000902D02*
X001707Y001502D01*
D16*
X001067Y000402D02*
X001067Y004810D01*
X001158Y004719D01*
X001320Y004652D01*
X002095Y004652D01*
X002215Y004702D01*
X002519Y004702D01*
X002543Y004688D01*
X002696Y004665D01*
X002805Y004692D01*
X002963Y004692D01*
X003197Y004926D01*
X003197Y005258D01*
X002963Y005492D01*
X002631Y005492D01*
X002621Y005482D01*
X002215Y005482D01*
X002095Y005532D01*
X001320Y005532D01*
X001158Y005465D01*
X001067Y005374D01*
X001067Y005810D01*
X001158Y005719D01*
X001320Y005652D01*
X002095Y005652D01*
X002256Y005719D01*
X002380Y005843D01*
X002447Y006004D01*
X002447Y006179D01*
X002380Y006341D01*
X002256Y006465D01*
X002095Y006532D01*
X001320Y006532D01*
X001158Y006465D01*
X001067Y006374D01*
X001067Y006810D01*
X001158Y006719D01*
X001320Y006652D01*
X002095Y006652D01*
X002256Y006719D01*
X002380Y006843D01*
X002447Y007004D01*
X002447Y007179D01*
X002380Y007341D01*
X002256Y007465D01*
X002095Y007532D01*
X001320Y007532D01*
X001158Y007465D01*
X001067Y007374D01*
X001067Y007810D01*
X001158Y007719D01*
X001320Y007652D01*
X002095Y007652D01*
X002256Y007719D01*
X002380Y007843D01*
X002447Y008004D01*
X002447Y008179D01*
X002380Y008341D01*
X002256Y008465D01*
X002095Y008532D01*
X001320Y008532D01*
X001158Y008465D01*
X001067Y008374D01*
X001067Y008810D01*
X001158Y008719D01*
X001320Y008652D01*
X002095Y008652D01*
X002256Y008719D01*
X002380Y008843D01*
X002447Y009004D01*
X002447Y009179D01*
X002380Y009341D01*
X002256Y009465D01*
X002095Y009532D01*
X001320Y009532D01*
X001158Y009465D01*
X001067Y009374D01*
X001067Y009810D01*
X001158Y009719D01*
X001320Y009652D01*
X002095Y009652D01*
X002256Y009719D01*
X002380Y009843D01*
X002447Y010004D01*
X002447Y010179D01*
X002380Y010341D01*
X002256Y010465D01*
X002095Y010532D01*
X001320Y010532D01*
X001158Y010465D01*
X001067Y010374D01*
X001067Y010810D01*
X001158Y010719D01*
X001320Y010652D01*
X002095Y010652D01*
X002256Y010719D01*
X002380Y010843D01*
X002447Y011004D01*
X002447Y011179D01*
X002380Y011341D01*
X002256Y011465D01*
X002095Y011532D01*
X001320Y011532D01*
X001158Y011465D01*
X001067Y011374D01*
X001067Y011810D01*
X001158Y011719D01*
X001320Y011652D01*
X002095Y011652D01*
X002256Y011719D01*
X002380Y011843D01*
X002447Y012004D01*
X002447Y012179D01*
X002380Y012341D01*
X002256Y012465D01*
X002095Y012532D01*
X001320Y012532D01*
X001158Y012465D01*
X001067Y012374D01*
X001067Y012810D01*
X001158Y012719D01*
X001320Y012652D01*
X002095Y012652D01*
X002256Y012719D01*
X002380Y012843D01*
X002447Y013004D01*
X002447Y013179D01*
X002380Y013341D01*
X002256Y013465D01*
X002095Y013532D01*
X001320Y013532D01*
X001158Y013465D01*
X001067Y013374D01*
X001067Y013810D01*
X001158Y013719D01*
X001320Y013652D01*
X002095Y013652D01*
X002256Y013719D01*
X002380Y013843D01*
X002447Y014004D01*
X002447Y014179D01*
X002380Y014341D01*
X002256Y014465D01*
X002095Y014532D01*
X001320Y014532D01*
X001158Y014465D01*
X001067Y014374D01*
X001067Y014810D01*
X001158Y014719D01*
X001320Y014652D01*
X002095Y014652D01*
X002256Y014719D01*
X002380Y014843D01*
X002447Y015004D01*
X002447Y015179D01*
X002380Y015341D01*
X002256Y015465D01*
X002095Y015532D01*
X001320Y015532D01*
X001158Y015465D01*
X001067Y015374D01*
X001067Y015722D01*
X036187Y015722D01*
X036187Y015384D01*
X036106Y015465D01*
X035945Y015532D01*
X035170Y015532D01*
X035008Y015465D01*
X034985Y015442D01*
X034653Y015442D01*
X034643Y015452D01*
X034311Y015452D01*
X034077Y015218D01*
X034077Y014886D01*
X034311Y014652D01*
X034643Y014652D01*
X034653Y014662D01*
X035145Y014662D01*
X035170Y014652D01*
X035945Y014652D01*
X036106Y014719D01*
X036187Y014800D01*
X036187Y014384D01*
X036106Y014465D01*
X035945Y014532D01*
X035170Y014532D01*
X035008Y014465D01*
X034884Y014341D01*
X034817Y014179D01*
X034817Y014004D01*
X034884Y013843D01*
X035008Y013719D01*
X035170Y013652D01*
X035945Y013652D01*
X036106Y013719D01*
X036187Y013800D01*
X036187Y013384D01*
X036106Y013465D01*
X035945Y013532D01*
X035170Y013532D01*
X035008Y013465D01*
X034884Y013341D01*
X034817Y013179D01*
X034817Y013004D01*
X034884Y012843D01*
X035008Y012719D01*
X035170Y012652D01*
X035945Y012652D01*
X036106Y012719D01*
X036187Y012800D01*
X036187Y012384D01*
X036106Y012465D01*
X035945Y012532D01*
X035170Y012532D01*
X035008Y012465D01*
X034884Y012341D01*
X034817Y012179D01*
X034817Y012004D01*
X034884Y011843D01*
X035008Y011719D01*
X035170Y011652D01*
X035945Y011652D01*
X036106Y011719D01*
X036187Y011800D01*
X036187Y011384D01*
X036106Y011465D01*
X035945Y011532D01*
X035170Y011532D01*
X035008Y011465D01*
X034884Y011341D01*
X034817Y011179D01*
X034817Y011004D01*
X034884Y010843D01*
X035008Y010719D01*
X035170Y010652D01*
X035945Y010652D01*
X036106Y010719D01*
X036187Y010800D01*
X036187Y010384D01*
X036106Y010465D01*
X035945Y010532D01*
X035170Y010532D01*
X035008Y010465D01*
X034884Y010341D01*
X034817Y010179D01*
X034817Y010004D01*
X034884Y009843D01*
X035008Y009719D01*
X035170Y009652D01*
X035945Y009652D01*
X036106Y009719D01*
X036187Y009800D01*
X036187Y009384D01*
X036106Y009465D01*
X035945Y009532D01*
X035170Y009532D01*
X035008Y009465D01*
X034884Y009341D01*
X034817Y009179D01*
X034817Y009004D01*
X034884Y008843D01*
X035008Y008719D01*
X035170Y008652D01*
X035945Y008652D01*
X036106Y008719D01*
X036187Y008800D01*
X036187Y008384D01*
X036106Y008465D01*
X035945Y008532D01*
X035170Y008532D01*
X035008Y008465D01*
X034884Y008341D01*
X034817Y008179D01*
X034817Y008004D01*
X034884Y007843D01*
X035008Y007719D01*
X035170Y007652D01*
X035945Y007652D01*
X036106Y007719D01*
X036187Y007800D01*
X036187Y007384D01*
X036106Y007465D01*
X035945Y007532D01*
X035170Y007532D01*
X035008Y007465D01*
X034884Y007341D01*
X034817Y007179D01*
X034817Y007004D01*
X034884Y006843D01*
X035008Y006719D01*
X035170Y006652D01*
X035945Y006652D01*
X036106Y006719D01*
X036187Y006800D01*
X036187Y006384D01*
X036106Y006465D01*
X035945Y006532D01*
X035170Y006532D01*
X035008Y006465D01*
X034884Y006341D01*
X034817Y006179D01*
X034817Y006004D01*
X034884Y005843D01*
X035008Y005719D01*
X035170Y005652D01*
X035945Y005652D01*
X036106Y005719D01*
X036187Y005800D01*
X036187Y005384D01*
X036106Y005465D01*
X035945Y005532D01*
X035170Y005532D01*
X035008Y005465D01*
X034884Y005341D01*
X034817Y005179D01*
X034817Y005004D01*
X034884Y004843D01*
X035008Y004719D01*
X035170Y004652D01*
X035945Y004652D01*
X036106Y004719D01*
X036187Y004800D01*
X036187Y000402D01*
X035287Y000402D01*
X035287Y000573D01*
X035287Y001042D01*
X035925Y001042D01*
X036007Y001124D01*
X036007Y001840D01*
X035925Y001922D01*
X035287Y001922D01*
X035290Y002004D01*
X035287Y002008D01*
X035287Y002013D01*
X035226Y002074D01*
X035007Y002310D01*
X035007Y002664D01*
X034749Y002922D01*
X034385Y002922D01*
X034127Y002664D01*
X034127Y002300D01*
X034385Y002042D01*
X034656Y002042D01*
X034847Y001836D01*
X034847Y001824D01*
X034749Y001922D01*
X034385Y001922D01*
X034127Y001664D01*
X034127Y001300D01*
X034385Y001042D01*
X034749Y001042D01*
X034847Y001140D01*
X034847Y000702D01*
X030893Y000702D01*
X030938Y000721D01*
X031028Y000811D01*
X031077Y000928D01*
X031077Y001056D01*
X031028Y001173D01*
X030938Y001263D01*
X030917Y001272D01*
X031174Y001272D01*
X031226Y001221D01*
X031343Y001172D01*
X031471Y001172D01*
X031588Y001221D01*
X031678Y001311D01*
X031727Y001428D01*
X031727Y001556D01*
X031678Y001673D01*
X031588Y001763D01*
X031471Y001812D01*
X031343Y001812D01*
X031226Y001763D01*
X031174Y001712D01*
X029966Y001712D01*
X029837Y001583D01*
X029466Y001212D01*
X029376Y001212D01*
X029566Y001402D01*
X029695Y001531D01*
X029695Y002027D01*
X029728Y002061D01*
X029777Y002178D01*
X029777Y002306D01*
X029728Y002423D01*
X029638Y002513D01*
X029521Y002562D01*
X029393Y002562D01*
X029276Y002513D01*
X029186Y002423D01*
X029137Y002306D01*
X029137Y002178D01*
X029186Y002061D01*
X029255Y001992D01*
X029255Y001713D01*
X029003Y001462D01*
X016776Y001462D01*
X018416Y002442D01*
X018435Y002442D01*
X018464Y002471D01*
X018499Y002491D01*
X018503Y002510D01*
X018517Y002524D01*
X018517Y002565D01*
X018527Y002604D01*
X018517Y002621D01*
X018517Y004083D01*
X018527Y004100D01*
X018517Y004139D01*
X018517Y004180D01*
X018503Y004194D01*
X018499Y004212D01*
X018464Y004233D01*
X018435Y004262D01*
X018416Y004262D01*
X016724Y005273D01*
X016695Y005302D01*
X016676Y005302D01*
X016659Y005312D01*
X016620Y005302D01*
X015054Y005302D01*
X015015Y005312D01*
X014998Y005302D01*
X014979Y005302D01*
X014950Y005273D01*
X013258Y004262D01*
X013239Y004262D01*
X013210Y004233D01*
X013175Y004212D01*
X013171Y004194D01*
X013157Y004180D01*
X013157Y004139D01*
X013147Y004100D01*
X013157Y004083D01*
X013157Y002619D01*
X013147Y002601D01*
X013157Y002563D01*
X013157Y002524D01*
X013172Y002509D01*
X013177Y002489D01*
X013211Y002470D01*
X013239Y002442D01*
X013260Y002442D01*
X014975Y001462D01*
X013848Y001462D01*
X012827Y002483D01*
X012827Y002556D01*
X012778Y002673D01*
X012688Y002763D01*
X012571Y002812D01*
X012443Y002812D01*
X012326Y002763D01*
X012236Y002673D01*
X012187Y002556D01*
X012187Y002428D01*
X012236Y002311D01*
X012326Y002221D01*
X012443Y002172D01*
X012516Y002172D01*
X013476Y001212D01*
X010698Y001212D01*
X009398Y002512D01*
X009216Y002512D01*
X004066Y002512D01*
X003937Y002383D01*
X003496Y001942D01*
X003400Y001942D01*
X003238Y001875D01*
X003114Y001751D01*
X003047Y001589D01*
X003047Y000814D01*
X003114Y000653D01*
X003238Y000529D01*
X003400Y000462D01*
X003575Y000462D01*
X003736Y000529D01*
X003860Y000653D01*
X003927Y000814D01*
X003927Y001589D01*
X003880Y001704D01*
X004248Y002072D01*
X006326Y002072D01*
X006196Y001942D01*
X006110Y001942D01*
X005948Y001875D01*
X005824Y001751D01*
X005757Y001589D01*
X005757Y000814D01*
X005824Y000653D01*
X005948Y000529D01*
X006110Y000462D01*
X006285Y000462D01*
X006446Y000529D01*
X006570Y000653D01*
X006637Y000814D01*
X006637Y001589D01*
X006587Y001711D01*
X006698Y001822D01*
X006795Y001822D01*
X006761Y001789D01*
X006721Y001732D01*
X006689Y001671D01*
X006668Y001605D01*
X006657Y001536D01*
X006657Y001242D01*
X007057Y001242D01*
X007057Y001162D01*
X006657Y001162D01*
X006657Y000867D01*
X006668Y000799D01*
X006689Y000733D01*
X006721Y000671D01*
X006761Y000615D01*
X006810Y000566D01*
X006866Y000526D01*
X006928Y000494D01*
X006994Y000473D01*
X007057Y000463D01*
X007057Y001162D01*
X007137Y001162D01*
X007137Y001242D01*
X007537Y001242D01*
X007537Y001536D01*
X007526Y001605D01*
X007505Y001671D01*
X007473Y001732D01*
X007433Y001789D01*
X007399Y001822D01*
X008575Y001822D01*
X008504Y001751D01*
X008437Y001589D01*
X008437Y000814D01*
X008504Y000653D01*
X008628Y000529D01*
X008790Y000462D01*
X008965Y000462D01*
X009126Y000529D01*
X009250Y000653D01*
X009317Y000814D01*
X009317Y000982D01*
X009536Y000982D01*
X010116Y000402D01*
X001067Y000402D01*
X001067Y000479D02*
X001585Y000479D01*
X001604Y000473D02*
X001667Y000463D01*
X001667Y001162D01*
X001267Y001162D01*
X001267Y000867D01*
X001278Y000799D01*
X001299Y000733D01*
X001331Y000671D01*
X001371Y000615D01*
X001420Y000566D01*
X001476Y000526D01*
X001538Y000494D01*
X001604Y000473D01*
X001667Y000479D02*
X001747Y000479D01*
X001747Y000463D02*
X001810Y000473D01*
X001876Y000494D01*
X001938Y000526D01*
X001994Y000566D01*
X002043Y000615D01*
X002083Y000671D01*
X002115Y000733D01*
X002136Y000799D01*
X002147Y000867D01*
X002147Y001162D01*
X001747Y001162D01*
X001747Y001242D01*
X001667Y001242D01*
X001667Y001941D01*
X001604Y001931D01*
X001538Y001910D01*
X001476Y001878D01*
X001420Y001837D01*
X001371Y001789D01*
X001331Y001732D01*
X001299Y001671D01*
X001278Y001605D01*
X001267Y001536D01*
X001267Y001242D01*
X001667Y001242D01*
X001667Y001162D01*
X001747Y001162D01*
X001747Y000463D01*
X001829Y000479D02*
X003358Y000479D01*
X003169Y000598D02*
X002025Y000598D01*
X002106Y000716D02*
X003088Y000716D01*
X003047Y000835D02*
X002142Y000835D01*
X002147Y000953D02*
X003047Y000953D01*
X003047Y001072D02*
X002147Y001072D01*
X002147Y001242D02*
X001747Y001242D01*
X001747Y001941D01*
X001810Y001931D01*
X001876Y001910D01*
X001938Y001878D01*
X001994Y001837D01*
X002043Y001789D01*
X002083Y001732D01*
X002115Y001671D01*
X002136Y001605D01*
X002147Y001536D01*
X002147Y001242D01*
X002147Y001309D02*
X003047Y001309D01*
X003047Y001427D02*
X002147Y001427D01*
X002146Y001546D02*
X003047Y001546D01*
X003078Y001664D02*
X002117Y001664D01*
X002047Y001783D02*
X003146Y001783D01*
X003302Y001901D02*
X001892Y001901D01*
X001747Y001901D02*
X001667Y001901D01*
X001667Y001783D02*
X001747Y001783D01*
X001747Y001664D02*
X001667Y001664D01*
X001667Y001546D02*
X001747Y001546D01*
X001747Y001427D02*
X001667Y001427D01*
X001667Y001309D02*
X001747Y001309D01*
X001747Y001190D02*
X003047Y001190D01*
X003927Y001190D02*
X004377Y001190D01*
X004377Y001162D02*
X003977Y001162D01*
X003977Y000867D01*
X003988Y000799D01*
X004009Y000733D01*
X004041Y000671D01*
X004081Y000615D01*
X004130Y000566D01*
X004186Y000526D01*
X004248Y000494D01*
X004314Y000473D01*
X004377Y000463D01*
X004377Y001162D01*
X004377Y001242D01*
X004377Y001941D01*
X004314Y001931D01*
X004248Y001910D01*
X004186Y001878D01*
X004130Y001837D01*
X004081Y001789D01*
X004041Y001732D01*
X004009Y001671D01*
X003988Y001605D01*
X003977Y001536D01*
X003977Y001242D01*
X004377Y001242D01*
X004457Y001242D01*
X004457Y001941D01*
X004520Y001931D01*
X004586Y001910D01*
X004648Y001878D01*
X004704Y001837D01*
X004753Y001789D01*
X004793Y001732D01*
X004825Y001671D01*
X004846Y001605D01*
X004857Y001536D01*
X004857Y001242D01*
X004457Y001242D01*
X004457Y001162D01*
X004857Y001162D01*
X004857Y000867D01*
X004846Y000799D01*
X004825Y000733D01*
X004793Y000671D01*
X004753Y000615D01*
X004704Y000566D01*
X004648Y000526D01*
X004586Y000494D01*
X004520Y000473D01*
X004457Y000463D01*
X004457Y001162D01*
X004377Y001162D01*
X004457Y001190D02*
X005757Y001190D01*
X005757Y001072D02*
X004857Y001072D01*
X004857Y000953D02*
X005757Y000953D01*
X005757Y000835D02*
X004852Y000835D01*
X004816Y000716D02*
X005798Y000716D01*
X005879Y000598D02*
X004735Y000598D01*
X004539Y000479D02*
X006068Y000479D01*
X006326Y000479D02*
X006975Y000479D01*
X007057Y000479D02*
X007137Y000479D01*
X007137Y000463D02*
X007200Y000473D01*
X007266Y000494D01*
X007328Y000526D01*
X007384Y000566D01*
X007433Y000615D01*
X007473Y000671D01*
X007505Y000733D01*
X007526Y000799D01*
X007537Y000867D01*
X007537Y001162D01*
X007137Y001162D01*
X007137Y000463D01*
X007219Y000479D02*
X008748Y000479D01*
X008559Y000598D02*
X007415Y000598D01*
X007496Y000716D02*
X008478Y000716D01*
X008437Y000835D02*
X007532Y000835D01*
X007537Y000953D02*
X008437Y000953D01*
X008437Y001072D02*
X007537Y001072D01*
X007537Y001309D02*
X008437Y001309D01*
X008437Y001427D02*
X007537Y001427D01*
X007536Y001546D02*
X008437Y001546D01*
X008468Y001664D02*
X007507Y001664D01*
X007437Y001783D02*
X008536Y001783D01*
X008437Y001190D02*
X007137Y001190D01*
X007057Y001190D02*
X006637Y001190D01*
X006637Y001072D02*
X006657Y001072D01*
X006657Y000953D02*
X006637Y000953D01*
X006637Y000835D02*
X006662Y000835D01*
X006698Y000716D02*
X006596Y000716D01*
X006515Y000598D02*
X006779Y000598D01*
X007057Y000598D02*
X007137Y000598D01*
X007137Y000716D02*
X007057Y000716D01*
X007057Y000835D02*
X007137Y000835D01*
X007137Y000953D02*
X007057Y000953D01*
X007057Y001072D02*
X007137Y001072D01*
X006657Y001309D02*
X006637Y001309D01*
X006637Y001427D02*
X006657Y001427D01*
X006659Y001546D02*
X006637Y001546D01*
X006606Y001664D02*
X006687Y001664D01*
X006659Y001783D02*
X006757Y001783D01*
X006274Y002020D02*
X004196Y002020D01*
X004232Y001901D02*
X004078Y001901D01*
X004077Y001783D02*
X003959Y001783D01*
X004007Y001664D02*
X003896Y001664D01*
X003927Y001546D02*
X003979Y001546D01*
X003977Y001427D02*
X003927Y001427D01*
X003927Y001309D02*
X003977Y001309D01*
X003977Y001072D02*
X003927Y001072D01*
X003927Y000953D02*
X003977Y000953D01*
X003982Y000835D02*
X003927Y000835D01*
X003886Y000716D02*
X004018Y000716D01*
X004099Y000598D02*
X003805Y000598D01*
X003616Y000479D02*
X004295Y000479D01*
X004377Y000479D02*
X004457Y000479D01*
X004457Y000598D02*
X004377Y000598D01*
X004377Y000716D02*
X004457Y000716D01*
X004457Y000835D02*
X004377Y000835D01*
X004377Y000953D02*
X004457Y000953D01*
X004457Y001072D02*
X004377Y001072D01*
X004377Y001309D02*
X004457Y001309D01*
X004457Y001427D02*
X004377Y001427D01*
X004377Y001546D02*
X004457Y001546D01*
X004457Y001664D02*
X004377Y001664D01*
X004377Y001783D02*
X004457Y001783D01*
X004457Y001901D02*
X004377Y001901D01*
X004602Y001901D02*
X006012Y001901D01*
X005856Y001783D02*
X004757Y001783D01*
X004827Y001664D02*
X005788Y001664D01*
X005757Y001546D02*
X004856Y001546D01*
X004857Y001427D02*
X005757Y001427D01*
X005757Y001309D02*
X004857Y001309D01*
X003811Y002257D02*
X001067Y002257D01*
X001067Y002139D02*
X003693Y002139D01*
X003574Y002020D02*
X001067Y002020D01*
X001067Y001901D02*
X001522Y001901D01*
X001367Y001783D02*
X001067Y001783D01*
X001067Y001664D02*
X001297Y001664D01*
X001269Y001546D02*
X001067Y001546D01*
X001067Y001427D02*
X001267Y001427D01*
X001267Y001309D02*
X001067Y001309D01*
X001067Y001190D02*
X001667Y001190D01*
X001667Y001072D02*
X001747Y001072D01*
X001747Y000953D02*
X001667Y000953D01*
X001667Y000835D02*
X001747Y000835D01*
X001747Y000716D02*
X001667Y000716D01*
X001667Y000598D02*
X001747Y000598D01*
X001389Y000598D02*
X001067Y000598D01*
X001067Y000716D02*
X001308Y000716D01*
X001272Y000835D02*
X001067Y000835D01*
X001067Y000953D02*
X001267Y000953D01*
X001267Y001072D02*
X001067Y001072D01*
X001067Y002376D02*
X003930Y002376D01*
X004048Y002494D02*
X001067Y002494D01*
X001067Y002613D02*
X012211Y002613D01*
X012187Y002494D02*
X009416Y002494D01*
X009534Y002376D02*
X012209Y002376D01*
X012289Y002257D02*
X009653Y002257D01*
X009771Y002139D02*
X012549Y002139D01*
X012668Y002020D02*
X009890Y002020D01*
X010009Y001901D02*
X012786Y001901D01*
X012905Y001783D02*
X010127Y001783D01*
X010246Y001664D02*
X013023Y001664D01*
X013142Y001546D02*
X010364Y001546D01*
X010483Y001427D02*
X013261Y001427D01*
X013379Y001309D02*
X010601Y001309D01*
X009802Y000716D02*
X009276Y000716D01*
X009317Y000835D02*
X009683Y000835D01*
X009565Y000953D02*
X009317Y000953D01*
X009195Y000598D02*
X009920Y000598D01*
X010039Y000479D02*
X009006Y000479D01*
X012827Y002494D02*
X013176Y002494D01*
X013154Y002613D02*
X012803Y002613D01*
X012720Y002731D02*
X013157Y002731D01*
X013157Y002850D02*
X001067Y002850D01*
X001067Y002968D02*
X013157Y002968D01*
X013157Y003087D02*
X009122Y003087D01*
X009126Y003089D02*
X009250Y003213D01*
X009317Y003374D01*
X009317Y004149D01*
X009250Y004311D01*
X009126Y004435D01*
X008965Y004502D01*
X008790Y004502D01*
X008628Y004435D01*
X008504Y004311D01*
X008437Y004149D01*
X008437Y003374D01*
X008504Y003213D01*
X008628Y003089D01*
X008790Y003022D01*
X008965Y003022D01*
X009126Y003089D01*
X009243Y003205D02*
X013157Y003205D01*
X013157Y003324D02*
X009296Y003324D01*
X009317Y003443D02*
X013157Y003443D01*
X013157Y003561D02*
X009317Y003561D01*
X009317Y003680D02*
X013157Y003680D01*
X013157Y003798D02*
X009317Y003798D01*
X009317Y003917D02*
X013157Y003917D01*
X013157Y004035D02*
X009317Y004035D01*
X009315Y004154D02*
X013157Y004154D01*
X013276Y004272D02*
X009266Y004272D01*
X009170Y004391D02*
X013474Y004391D01*
X013673Y004509D02*
X001067Y004509D01*
X001067Y004391D02*
X001414Y004391D01*
X001420Y004397D02*
X001371Y004349D01*
X001331Y004292D01*
X001299Y004231D01*
X001278Y004165D01*
X001267Y004096D01*
X001267Y003802D01*
X001667Y003802D01*
X001667Y004501D01*
X001604Y004491D01*
X001538Y004470D01*
X001476Y004438D01*
X001420Y004397D01*
X001321Y004272D02*
X001067Y004272D01*
X001067Y004154D02*
X001276Y004154D01*
X001267Y004035D02*
X001067Y004035D01*
X001067Y003917D02*
X001267Y003917D01*
X001267Y003722D02*
X001267Y003427D01*
X001278Y003359D01*
X001299Y003293D01*
X001331Y003231D01*
X001371Y003175D01*
X001420Y003126D01*
X001476Y003086D01*
X001538Y003054D01*
X001604Y003033D01*
X001667Y003023D01*
X001667Y003722D01*
X001267Y003722D01*
X001267Y003680D02*
X001067Y003680D01*
X001067Y003798D02*
X001667Y003798D01*
X001667Y003802D02*
X001667Y003722D01*
X001747Y003722D01*
X001747Y003802D01*
X001667Y003802D01*
X001747Y003802D02*
X001747Y004501D01*
X001810Y004491D01*
X001876Y004470D01*
X001938Y004438D01*
X001994Y004397D01*
X002043Y004349D01*
X002083Y004292D01*
X002115Y004231D01*
X002136Y004165D01*
X002147Y004096D01*
X002147Y003802D01*
X001747Y003802D01*
X001747Y003798D02*
X003047Y003798D01*
X003047Y003680D02*
X002147Y003680D01*
X002147Y003722D02*
X001747Y003722D01*
X001747Y003023D01*
X001810Y003033D01*
X001876Y003054D01*
X001938Y003086D01*
X001994Y003126D01*
X002043Y003175D01*
X002083Y003231D01*
X002115Y003293D01*
X002136Y003359D01*
X002147Y003427D01*
X002147Y003722D01*
X002147Y003561D02*
X003047Y003561D01*
X003047Y003443D02*
X002147Y003443D01*
X002125Y003324D02*
X003068Y003324D01*
X003047Y003374D02*
X003114Y003213D01*
X003238Y003089D01*
X003400Y003022D01*
X003575Y003022D01*
X003736Y003089D01*
X003860Y003213D01*
X003927Y003374D01*
X003927Y004149D01*
X003860Y004311D01*
X003736Y004435D01*
X003575Y004502D01*
X003400Y004502D01*
X003238Y004435D01*
X003114Y004311D01*
X003047Y004149D01*
X003047Y003374D01*
X003121Y003205D02*
X002065Y003205D01*
X001940Y003087D02*
X003242Y003087D01*
X003732Y003087D02*
X004185Y003087D01*
X004186Y003086D02*
X004248Y003054D01*
X004314Y003033D01*
X004377Y003023D01*
X004377Y003722D01*
X003977Y003722D01*
X003977Y003427D01*
X003988Y003359D01*
X004009Y003293D01*
X004041Y003231D01*
X004081Y003175D01*
X004130Y003126D01*
X004186Y003086D01*
X004059Y003205D02*
X003853Y003205D01*
X003906Y003324D02*
X003999Y003324D01*
X003977Y003443D02*
X003927Y003443D01*
X003927Y003561D02*
X003977Y003561D01*
X003977Y003680D02*
X003927Y003680D01*
X003927Y003798D02*
X004377Y003798D01*
X004377Y003802D02*
X004377Y003722D01*
X004457Y003722D01*
X004457Y003802D01*
X004377Y003802D01*
X004377Y004501D01*
X004314Y004491D01*
X004248Y004470D01*
X004186Y004438D01*
X004130Y004397D01*
X004081Y004349D01*
X004041Y004292D01*
X004009Y004231D01*
X003988Y004165D01*
X003977Y004096D01*
X003977Y003802D01*
X004377Y003802D01*
X004457Y003802D02*
X004457Y004501D01*
X004520Y004491D01*
X004586Y004470D01*
X004648Y004438D01*
X004704Y004397D01*
X004753Y004349D01*
X004793Y004292D01*
X004825Y004231D01*
X004846Y004165D01*
X004857Y004096D01*
X004857Y003802D01*
X004457Y003802D01*
X004457Y003798D02*
X005757Y003798D01*
X005757Y003680D02*
X004857Y003680D01*
X004857Y003722D02*
X004457Y003722D01*
X004457Y003023D01*
X004520Y003033D01*
X004586Y003054D01*
X004648Y003086D01*
X004704Y003126D01*
X004753Y003175D01*
X004793Y003231D01*
X004825Y003293D01*
X004846Y003359D01*
X004857Y003427D01*
X004857Y003722D01*
X004857Y003561D02*
X005757Y003561D01*
X005757Y003443D02*
X004857Y003443D01*
X004835Y003324D02*
X005778Y003324D01*
X005757Y003374D02*
X005824Y003213D01*
X005948Y003089D01*
X006110Y003022D01*
X006285Y003022D01*
X006446Y003089D01*
X006570Y003213D01*
X006637Y003374D01*
X006637Y004149D01*
X006570Y004311D01*
X006446Y004435D01*
X006285Y004502D01*
X006110Y004502D01*
X005948Y004435D01*
X005824Y004311D01*
X005757Y004149D01*
X005757Y003374D01*
X005831Y003205D02*
X004775Y003205D01*
X004650Y003087D02*
X005952Y003087D01*
X006442Y003087D02*
X006865Y003087D01*
X006866Y003086D02*
X006928Y003054D01*
X006994Y003033D01*
X007057Y003023D01*
X007057Y003722D01*
X006657Y003722D01*
X006657Y003427D01*
X006668Y003359D01*
X006689Y003293D01*
X006721Y003231D01*
X006761Y003175D01*
X006810Y003126D01*
X006866Y003086D01*
X006739Y003205D02*
X006563Y003205D01*
X006616Y003324D02*
X006679Y003324D01*
X006657Y003443D02*
X006637Y003443D01*
X006637Y003561D02*
X006657Y003561D01*
X006657Y003680D02*
X006637Y003680D01*
X006637Y003798D02*
X007057Y003798D01*
X007057Y003802D02*
X007057Y003722D01*
X007137Y003722D01*
X007137Y003802D01*
X007057Y003802D01*
X007057Y004501D01*
X006994Y004491D01*
X006928Y004470D01*
X006866Y004438D01*
X006810Y004397D01*
X006761Y004349D01*
X006721Y004292D01*
X006689Y004231D01*
X006668Y004165D01*
X006657Y004096D01*
X006657Y003802D01*
X007057Y003802D01*
X007137Y003802D02*
X007137Y004501D01*
X007200Y004491D01*
X007266Y004470D01*
X007328Y004438D01*
X007384Y004397D01*
X007433Y004349D01*
X007473Y004292D01*
X007505Y004231D01*
X007526Y004165D01*
X007537Y004096D01*
X007537Y003802D01*
X007137Y003802D01*
X007137Y003798D02*
X008437Y003798D01*
X008437Y003680D02*
X007537Y003680D01*
X007537Y003722D02*
X007137Y003722D01*
X007137Y003023D01*
X007200Y003033D01*
X007266Y003054D01*
X007328Y003086D01*
X007384Y003126D01*
X007433Y003175D01*
X007473Y003231D01*
X007505Y003293D01*
X007526Y003359D01*
X007537Y003427D01*
X007537Y003722D01*
X007537Y003561D02*
X008437Y003561D01*
X008437Y003443D02*
X007537Y003443D01*
X007515Y003324D02*
X008458Y003324D01*
X008511Y003205D02*
X007455Y003205D01*
X007330Y003087D02*
X008632Y003087D01*
X008437Y003917D02*
X007537Y003917D01*
X007537Y004035D02*
X008437Y004035D01*
X008439Y004154D02*
X007528Y004154D01*
X007484Y004272D02*
X008488Y004272D01*
X008584Y004391D02*
X007390Y004391D01*
X007137Y004391D02*
X007057Y004391D01*
X007057Y004272D02*
X007137Y004272D01*
X007137Y004154D02*
X007057Y004154D01*
X007057Y004035D02*
X007137Y004035D01*
X007137Y003917D02*
X007057Y003917D01*
X007057Y003680D02*
X007137Y003680D01*
X007137Y003561D02*
X007057Y003561D01*
X007057Y003443D02*
X007137Y003443D01*
X007137Y003324D02*
X007057Y003324D01*
X007057Y003205D02*
X007137Y003205D01*
X007137Y003087D02*
X007057Y003087D01*
X006657Y003917D02*
X006637Y003917D01*
X006637Y004035D02*
X006657Y004035D01*
X006666Y004154D02*
X006635Y004154D01*
X006586Y004272D02*
X006711Y004272D01*
X006804Y004391D02*
X006490Y004391D01*
X006017Y004747D02*
X014069Y004747D01*
X013871Y004628D02*
X001067Y004628D01*
X001067Y004747D02*
X001130Y004747D01*
X001667Y004391D02*
X001747Y004391D01*
X001747Y004272D02*
X001667Y004272D01*
X001667Y004154D02*
X001747Y004154D01*
X001747Y004035D02*
X001667Y004035D01*
X001667Y003917D02*
X001747Y003917D01*
X001747Y003680D02*
X001667Y003680D01*
X001667Y003561D02*
X001747Y003561D01*
X001747Y003443D02*
X001667Y003443D01*
X001667Y003324D02*
X001747Y003324D01*
X001747Y003205D02*
X001667Y003205D01*
X001667Y003087D02*
X001747Y003087D01*
X001475Y003087D02*
X001067Y003087D01*
X001067Y003205D02*
X001349Y003205D01*
X001289Y003324D02*
X001067Y003324D01*
X001067Y003443D02*
X001267Y003443D01*
X001267Y003561D02*
X001067Y003561D01*
X002147Y003917D02*
X003047Y003917D01*
X003047Y004035D02*
X002147Y004035D01*
X002138Y004154D02*
X003049Y004154D01*
X003098Y004272D02*
X002094Y004272D01*
X002000Y004391D02*
X003194Y004391D01*
X003017Y004747D02*
X005577Y004747D01*
X005631Y004692D02*
X005397Y004926D01*
X005397Y005072D01*
X005777Y005072D01*
X005777Y005112D01*
X005777Y005492D01*
X005631Y005492D01*
X005397Y005258D01*
X005397Y005112D01*
X005777Y005112D01*
X005817Y005112D01*
X005817Y005492D01*
X005963Y005492D01*
X006197Y005258D01*
X006197Y005112D01*
X005817Y005112D01*
X005817Y005072D01*
X006197Y005072D01*
X006197Y004926D01*
X005963Y004692D01*
X005817Y004692D01*
X005817Y005072D01*
X005777Y005072D01*
X005777Y004692D01*
X005631Y004692D01*
X005777Y004747D02*
X005817Y004747D01*
X005817Y004865D02*
X005777Y004865D01*
X005777Y004984D02*
X005817Y004984D01*
X005817Y005102D02*
X014664Y005102D01*
X014466Y004984D02*
X006197Y004984D01*
X006136Y004865D02*
X014268Y004865D01*
X014863Y005221D02*
X006197Y005221D01*
X006115Y005339D02*
X034883Y005339D01*
X034834Y005221D02*
X016811Y005221D01*
X017010Y005102D02*
X034817Y005102D01*
X034826Y004984D02*
X017208Y004984D01*
X017406Y004865D02*
X034875Y004865D01*
X034980Y004747D02*
X017605Y004747D01*
X017803Y004628D02*
X029085Y004628D01*
X029090Y004630D02*
X028966Y004579D01*
X028870Y004483D01*
X028819Y004359D01*
X028819Y004225D01*
X028870Y004100D01*
X028966Y004005D01*
X029090Y003954D01*
X029184Y003954D01*
X029416Y003722D01*
X029598Y003722D01*
X032849Y003722D01*
X032916Y003655D01*
X033040Y003604D01*
X033174Y003604D01*
X033299Y003655D01*
X033394Y003750D01*
X033445Y003875D01*
X033445Y004009D01*
X033394Y004133D01*
X033299Y004229D01*
X033174Y004280D01*
X033040Y004280D01*
X032916Y004229D01*
X032849Y004162D01*
X029598Y004162D01*
X029495Y004265D01*
X029495Y004359D01*
X029444Y004483D01*
X029349Y004579D01*
X029224Y004630D01*
X029090Y004630D01*
X029229Y004628D02*
X036187Y004628D01*
X036187Y004747D02*
X036134Y004747D01*
X036187Y004509D02*
X029418Y004509D01*
X029482Y004391D02*
X036187Y004391D01*
X036187Y004272D02*
X033193Y004272D01*
X033021Y004272D02*
X029495Y004272D01*
X029221Y003917D02*
X026240Y003917D01*
X026267Y003982D02*
X026206Y003835D01*
X026094Y003723D01*
X025947Y003662D01*
X025787Y003662D01*
X025640Y003723D01*
X025528Y003835D01*
X025467Y003982D01*
X025467Y004141D01*
X025528Y004288D01*
X025640Y004401D01*
X025787Y004462D01*
X025947Y004462D01*
X026094Y004401D01*
X026206Y004288D01*
X026267Y004141D01*
X026267Y003982D01*
X026267Y004035D02*
X028936Y004035D01*
X028848Y004154D02*
X026262Y004154D01*
X026213Y004272D02*
X028819Y004272D01*
X028832Y004391D02*
X026104Y004391D01*
X025630Y004391D02*
X018200Y004391D01*
X018398Y004272D02*
X025521Y004272D01*
X025472Y004154D02*
X018517Y004154D01*
X018517Y004035D02*
X025467Y004035D01*
X025494Y003917D02*
X018517Y003917D01*
X018517Y003798D02*
X025565Y003798D01*
X025745Y003680D02*
X018517Y003680D01*
X018517Y003561D02*
X034127Y003561D01*
X034127Y003522D02*
X034527Y003522D01*
X034527Y003922D01*
X034385Y003922D01*
X034127Y003664D01*
X034127Y003522D01*
X034127Y003442D02*
X034127Y003300D01*
X034385Y003042D01*
X034527Y003042D01*
X034527Y003442D01*
X034127Y003442D01*
X034127Y003324D02*
X018517Y003324D01*
X018517Y003443D02*
X034527Y003443D01*
X034527Y003442D02*
X034527Y003522D01*
X034607Y003522D01*
X034607Y003922D01*
X034749Y003922D01*
X035007Y003664D01*
X035007Y003522D01*
X034607Y003522D01*
X034607Y003442D01*
X035007Y003442D01*
X035007Y003300D01*
X034749Y003042D01*
X034607Y003042D01*
X034607Y003442D01*
X034527Y003442D01*
X034607Y003443D02*
X035127Y003443D01*
X035127Y003561D02*
X035007Y003561D01*
X034991Y003680D02*
X035143Y003680D01*
X035127Y003664D02*
X035127Y003300D01*
X035385Y003042D01*
X035749Y003042D01*
X036007Y003300D01*
X036007Y003664D01*
X035749Y003922D01*
X035385Y003922D01*
X035127Y003664D01*
X035261Y003798D02*
X034873Y003798D01*
X034754Y003917D02*
X035380Y003917D01*
X035754Y003917D02*
X036187Y003917D01*
X036187Y004035D02*
X033434Y004035D01*
X033445Y003917D02*
X034380Y003917D01*
X034527Y003917D02*
X034607Y003917D01*
X034607Y003798D02*
X034527Y003798D01*
X034527Y003680D02*
X034607Y003680D01*
X034607Y003561D02*
X034527Y003561D01*
X034527Y003324D02*
X034607Y003324D01*
X034607Y003205D02*
X034527Y003205D01*
X034527Y003087D02*
X034607Y003087D01*
X034794Y003087D02*
X035340Y003087D01*
X035221Y003205D02*
X034913Y003205D01*
X035007Y003324D02*
X035127Y003324D01*
X035385Y002922D02*
X035127Y002664D01*
X035127Y002300D01*
X035385Y002042D01*
X035749Y002042D01*
X036007Y002300D01*
X036007Y002664D01*
X035749Y002922D01*
X035385Y002922D01*
X035313Y002850D02*
X034821Y002850D01*
X034940Y002731D02*
X035194Y002731D01*
X035127Y002613D02*
X035007Y002613D01*
X035007Y002494D02*
X035127Y002494D01*
X035127Y002376D02*
X035007Y002376D01*
X035056Y002257D02*
X035170Y002257D01*
X035166Y002139D02*
X035288Y002139D01*
X035280Y002020D02*
X036187Y002020D01*
X036187Y001901D02*
X035945Y001901D01*
X036007Y001783D02*
X036187Y001783D01*
X036187Y001664D02*
X036007Y001664D01*
X036007Y001546D02*
X036187Y001546D01*
X036187Y001427D02*
X036007Y001427D01*
X036007Y001309D02*
X036187Y001309D01*
X036187Y001190D02*
X036007Y001190D01*
X035955Y001072D02*
X036187Y001072D01*
X036187Y000953D02*
X035287Y000953D01*
X035287Y000835D02*
X036187Y000835D01*
X036187Y000716D02*
X035287Y000716D01*
X035287Y000598D02*
X036187Y000598D01*
X036187Y000479D02*
X035287Y000479D01*
X034847Y000716D02*
X030927Y000716D01*
X031038Y000835D02*
X034847Y000835D01*
X034847Y000953D02*
X031077Y000953D01*
X031070Y001072D02*
X034355Y001072D01*
X034236Y001190D02*
X031515Y001190D01*
X031677Y001309D02*
X034127Y001309D01*
X034127Y001427D02*
X031727Y001427D01*
X031727Y001546D02*
X034127Y001546D01*
X034127Y001664D02*
X031682Y001664D01*
X031541Y001783D02*
X034246Y001783D01*
X034364Y001901D02*
X029695Y001901D01*
X029695Y001783D02*
X031274Y001783D01*
X031299Y001190D02*
X031011Y001190D01*
X029919Y001664D02*
X029695Y001664D01*
X029695Y001546D02*
X029800Y001546D01*
X029681Y001427D02*
X029591Y001427D01*
X029563Y001309D02*
X029473Y001309D01*
X029087Y001546D02*
X016917Y001546D01*
X017115Y001664D02*
X029206Y001664D01*
X029255Y001783D02*
X025997Y001783D01*
X025947Y001762D02*
X026094Y001823D01*
X026206Y001935D01*
X026267Y002082D01*
X026267Y002241D01*
X026206Y002388D01*
X026094Y002501D01*
X025947Y002562D01*
X025787Y002562D01*
X025640Y002501D01*
X025528Y002388D01*
X025467Y002241D01*
X025467Y002082D01*
X025528Y001935D01*
X025640Y001823D01*
X025787Y001762D01*
X025947Y001762D01*
X025737Y001783D02*
X017313Y001783D01*
X017512Y001901D02*
X025562Y001901D01*
X025493Y002020D02*
X017710Y002020D01*
X017908Y002139D02*
X025467Y002139D01*
X025474Y002257D02*
X018107Y002257D01*
X018305Y002376D02*
X025523Y002376D01*
X025634Y002494D02*
X018499Y002494D01*
X018522Y002613D02*
X034127Y002613D01*
X034127Y002494D02*
X029657Y002494D01*
X029748Y002376D02*
X034127Y002376D01*
X034170Y002257D02*
X029777Y002257D01*
X029761Y002139D02*
X034288Y002139D01*
X034676Y002020D02*
X029695Y002020D01*
X029255Y001901D02*
X026172Y001901D01*
X026241Y002020D02*
X029226Y002020D01*
X029153Y002139D02*
X026267Y002139D01*
X026261Y002257D02*
X029137Y002257D01*
X029166Y002376D02*
X026211Y002376D01*
X026100Y002494D02*
X029257Y002494D01*
X029340Y003798D02*
X026169Y003798D01*
X025989Y003680D02*
X032891Y003680D01*
X033323Y003680D02*
X034143Y003680D01*
X034261Y003798D02*
X033414Y003798D01*
X033373Y004154D02*
X036187Y004154D01*
X036187Y003798D02*
X035873Y003798D01*
X035991Y003680D02*
X036187Y003680D01*
X036187Y003561D02*
X036007Y003561D01*
X036007Y003443D02*
X036187Y003443D01*
X036187Y003324D02*
X036007Y003324D01*
X035913Y003205D02*
X036187Y003205D01*
X036187Y003087D02*
X035794Y003087D01*
X035821Y002850D02*
X036187Y002850D01*
X036187Y002968D02*
X018517Y002968D01*
X018517Y002850D02*
X034313Y002850D01*
X034194Y002731D02*
X018517Y002731D01*
X018517Y003087D02*
X034340Y003087D01*
X034221Y003205D02*
X018517Y003205D01*
X018001Y004509D02*
X028896Y004509D01*
X029190Y007004D02*
X029324Y007004D01*
X029449Y007055D01*
X029544Y007150D01*
X029595Y007275D01*
X029595Y007409D01*
X029544Y007533D01*
X029449Y007629D01*
X029324Y007680D01*
X029287Y007680D01*
X028685Y008282D01*
X030305Y008282D01*
X030409Y008282D01*
X030504Y008321D01*
X030687Y008504D01*
X030724Y008504D01*
X030849Y008555D01*
X030944Y008650D01*
X030995Y008775D01*
X030995Y008909D01*
X030944Y009033D01*
X030849Y009129D01*
X030751Y009169D01*
X030795Y009275D01*
X030795Y009409D01*
X030744Y009533D01*
X030649Y009629D01*
X030524Y009680D01*
X030390Y009680D01*
X030266Y009629D01*
X030170Y009533D01*
X030157Y009501D01*
X030144Y009533D01*
X030049Y009629D01*
X029924Y009680D01*
X029790Y009680D01*
X029666Y009629D01*
X029639Y009602D01*
X029535Y009602D01*
X029937Y010004D01*
X029974Y010004D01*
X030099Y010055D01*
X030194Y010150D01*
X030245Y010275D01*
X030245Y010409D01*
X030194Y010533D01*
X030145Y010582D01*
X030889Y010582D01*
X030916Y010555D01*
X030172Y010555D01*
X030234Y010437D02*
X034980Y010437D01*
X034875Y010318D02*
X030245Y010318D01*
X030214Y010200D02*
X034825Y010200D01*
X034817Y010081D02*
X030124Y010081D01*
X029895Y009962D02*
X034834Y009962D01*
X034884Y009844D02*
X029777Y009844D01*
X029658Y009725D02*
X035001Y009725D01*
X035064Y009488D02*
X030762Y009488D01*
X030795Y009370D02*
X034913Y009370D01*
X034847Y009251D02*
X030785Y009251D01*
X030839Y009133D02*
X034817Y009133D01*
X034817Y009014D02*
X030952Y009014D01*
X030995Y008896D02*
X034862Y008896D01*
X034950Y008777D02*
X030995Y008777D01*
X030947Y008658D02*
X035154Y008658D01*
X034964Y008421D02*
X030604Y008421D01*
X030459Y008303D02*
X034868Y008303D01*
X034819Y008184D02*
X028782Y008184D01*
X028901Y008066D02*
X034817Y008066D01*
X034841Y007947D02*
X029019Y007947D01*
X029138Y007829D02*
X034898Y007829D01*
X035029Y007710D02*
X029256Y007710D01*
X029486Y007592D02*
X036187Y007592D01*
X036187Y007710D02*
X036085Y007710D01*
X036087Y007473D02*
X036187Y007473D01*
X035028Y007473D02*
X029569Y007473D01*
X029595Y007354D02*
X034897Y007354D01*
X034841Y007236D02*
X029579Y007236D01*
X029511Y007117D02*
X034817Y007117D01*
X034819Y006999D02*
X002445Y006999D01*
X002447Y007117D02*
X029003Y007117D01*
X028970Y007150D02*
X029066Y007055D01*
X029190Y007004D01*
X028970Y007150D02*
X028919Y007275D01*
X028919Y007312D01*
X028349Y007882D01*
X026605Y007882D01*
X026510Y007921D01*
X026437Y007995D01*
X026437Y007995D01*
X025749Y008682D01*
X012025Y008682D01*
X011999Y008655D01*
X011874Y008604D01*
X011740Y008604D01*
X011616Y008655D01*
X011520Y008750D01*
X011469Y008875D01*
X011469Y009009D01*
X011499Y009082D01*
X009125Y009082D01*
X009099Y009055D01*
X008974Y009004D01*
X008840Y009004D01*
X008716Y009055D01*
X008620Y009150D01*
X008569Y009275D01*
X008569Y009409D01*
X008599Y009482D01*
X005605Y009482D01*
X005510Y009521D01*
X005477Y009554D01*
X005440Y009554D01*
X005316Y009605D01*
X005220Y009700D01*
X005169Y009825D01*
X005169Y009959D01*
X005220Y010083D01*
X005316Y010179D01*
X005440Y010230D01*
X005574Y010230D01*
X005699Y010179D01*
X005794Y010083D01*
X005827Y010002D01*
X006899Y010002D01*
X006869Y010075D01*
X006869Y010204D01*
X006740Y010204D01*
X006616Y010255D01*
X006520Y010350D01*
X006469Y010475D01*
X006469Y010609D01*
X006499Y010682D01*
X005775Y010682D01*
X005699Y010605D01*
X005574Y010554D01*
X005440Y010554D01*
X005316Y010605D01*
X005220Y010700D01*
X005169Y010825D01*
X005169Y010959D01*
X005220Y011083D01*
X005316Y011179D01*
X005440Y011230D01*
X005574Y011230D01*
X005642Y011202D01*
X006299Y011202D01*
X006269Y011275D01*
X006269Y011409D01*
X006320Y011533D01*
X006416Y011629D01*
X006540Y011680D01*
X006674Y011680D01*
X006799Y011629D01*
X006825Y011602D01*
X026239Y011602D01*
X026266Y011629D01*
X026390Y011680D01*
X026524Y011680D01*
X026649Y011629D01*
X026744Y011533D01*
X026795Y011409D01*
X026795Y011275D01*
X026765Y011202D01*
X027139Y011202D01*
X027166Y011229D01*
X027290Y011280D01*
X027424Y011280D01*
X027549Y011229D01*
X027644Y011133D01*
X027695Y011009D01*
X027695Y010875D01*
X027665Y010802D01*
X029399Y010802D01*
X029587Y010989D01*
X029660Y011062D01*
X029755Y011102D01*
X030889Y011102D01*
X030916Y011129D01*
X031040Y011180D01*
X031174Y011180D01*
X031299Y011129D01*
X031394Y011033D01*
X031445Y010909D01*
X031445Y010775D01*
X031394Y010650D01*
X031299Y010555D01*
X031174Y010504D01*
X031040Y010504D01*
X030916Y010555D01*
X031298Y010555D02*
X036187Y010555D01*
X036187Y010437D02*
X036135Y010437D01*
X036187Y010674D02*
X035997Y010674D01*
X036180Y010792D02*
X036187Y010792D01*
X036186Y011385D02*
X036187Y011385D01*
X036187Y011504D02*
X036013Y011504D01*
X036187Y011622D02*
X026655Y011622D01*
X026756Y011504D02*
X035101Y011504D01*
X034928Y011385D02*
X026795Y011385D01*
X026792Y011266D02*
X027257Y011266D01*
X027457Y011266D02*
X034853Y011266D01*
X034817Y011148D02*
X031252Y011148D01*
X031395Y011029D02*
X034817Y011029D01*
X034856Y010911D02*
X031444Y010911D01*
X031445Y010792D02*
X034934Y010792D01*
X035117Y010674D02*
X031403Y010674D01*
X030962Y011148D02*
X027629Y011148D01*
X027687Y011029D02*
X029627Y011029D01*
X029508Y010911D02*
X027695Y010911D01*
X026259Y011622D02*
X006805Y011622D01*
X006409Y011622D02*
X001067Y011622D01*
X001067Y011504D02*
X001251Y011504D01*
X001078Y011385D02*
X001067Y011385D01*
X001067Y011741D02*
X001136Y011741D01*
X002163Y011504D02*
X006308Y011504D01*
X006269Y011385D02*
X002336Y011385D01*
X002411Y011266D02*
X006272Y011266D01*
X005285Y011148D02*
X002447Y011148D01*
X002447Y011029D02*
X005198Y011029D01*
X005169Y010911D02*
X002408Y010911D01*
X002330Y010792D02*
X005182Y010792D01*
X005247Y010674D02*
X002147Y010674D01*
X002285Y010437D02*
X006485Y010437D01*
X006469Y010555D02*
X005578Y010555D01*
X005436Y010555D02*
X001067Y010555D01*
X001067Y010437D02*
X001130Y010437D01*
X001067Y010674D02*
X001267Y010674D01*
X001084Y010792D02*
X001067Y010792D01*
X002390Y010318D02*
X006553Y010318D01*
X006869Y010200D02*
X005648Y010200D01*
X005795Y010081D02*
X006869Y010081D01*
X006496Y010674D02*
X005767Y010674D01*
X005366Y010200D02*
X002439Y010200D01*
X002447Y010081D02*
X005219Y010081D01*
X005170Y009962D02*
X002430Y009962D01*
X002381Y009844D02*
X005169Y009844D01*
X005210Y009725D02*
X002263Y009725D01*
X002200Y009488D02*
X005590Y009488D01*
X005314Y009607D02*
X001067Y009607D01*
X001067Y009725D02*
X001151Y009725D01*
X001214Y009488D02*
X001067Y009488D01*
X001067Y008777D02*
X001100Y008777D01*
X001067Y008658D02*
X001304Y008658D01*
X001067Y008540D02*
X025891Y008540D01*
X025773Y008658D02*
X012002Y008658D01*
X011612Y008658D02*
X002110Y008658D01*
X002314Y008777D02*
X011509Y008777D01*
X011469Y008896D02*
X002402Y008896D01*
X002447Y009014D02*
X008815Y009014D01*
X008999Y009014D02*
X011471Y009014D01*
X008638Y009133D02*
X002447Y009133D01*
X002417Y009251D02*
X008579Y009251D01*
X008569Y009370D02*
X002351Y009370D01*
X002300Y008421D02*
X026010Y008421D01*
X026128Y008303D02*
X002396Y008303D01*
X002445Y008184D02*
X026247Y008184D01*
X026366Y008066D02*
X002447Y008066D01*
X002423Y007947D02*
X026484Y007947D01*
X028403Y007829D02*
X002366Y007829D01*
X002235Y007710D02*
X028521Y007710D01*
X028640Y007592D02*
X001067Y007592D01*
X001067Y007710D02*
X001179Y007710D01*
X001178Y007473D02*
X001067Y007473D01*
X001067Y006762D02*
X001115Y006762D01*
X001067Y006643D02*
X036187Y006643D01*
X036187Y006525D02*
X035962Y006525D01*
X036165Y006406D02*
X036187Y006406D01*
X036187Y006762D02*
X036149Y006762D01*
X035152Y006525D02*
X002112Y006525D01*
X002315Y006406D02*
X034949Y006406D01*
X034862Y006288D02*
X002402Y006288D01*
X002447Y006169D02*
X017699Y006169D01*
X017730Y006182D02*
X017586Y006122D01*
X017477Y006013D01*
X017417Y005869D01*
X017417Y005714D01*
X017477Y005571D01*
X017586Y005461D01*
X017730Y005402D01*
X021162Y005402D01*
X021306Y005461D01*
X021415Y005571D01*
X021475Y005714D01*
X021475Y005869D01*
X021415Y006013D01*
X021306Y006122D01*
X021162Y006182D01*
X017730Y006182D01*
X017514Y006051D02*
X002447Y006051D01*
X002417Y005932D02*
X017443Y005932D01*
X017417Y005813D02*
X002351Y005813D01*
X002198Y005695D02*
X017425Y005695D01*
X017475Y005576D02*
X001067Y005576D01*
X001067Y005458D02*
X001151Y005458D01*
X001216Y005695D02*
X001067Y005695D01*
X001067Y006406D02*
X001099Y006406D01*
X001067Y006525D02*
X001302Y006525D01*
X002299Y006762D02*
X034965Y006762D01*
X034868Y006880D02*
X002396Y006880D01*
X002424Y007236D02*
X028935Y007236D01*
X028877Y007354D02*
X002367Y007354D01*
X002237Y007473D02*
X028758Y007473D01*
X030812Y008540D02*
X036187Y008540D01*
X036187Y008658D02*
X035960Y008658D01*
X036164Y008777D02*
X036187Y008777D01*
X036187Y008421D02*
X036150Y008421D01*
X036187Y009488D02*
X036050Y009488D01*
X036187Y009607D02*
X030670Y009607D01*
X030244Y009607D02*
X030070Y009607D01*
X029644Y009607D02*
X029540Y009607D01*
X034877Y011859D02*
X002387Y011859D01*
X002436Y011978D02*
X034828Y011978D01*
X034817Y012096D02*
X002447Y012096D01*
X002432Y012215D02*
X034832Y012215D01*
X034881Y012333D02*
X002383Y012333D01*
X002269Y012452D02*
X034995Y012452D01*
X035080Y012689D02*
X013533Y012689D01*
X013593Y012749D02*
X013671Y012938D01*
X013671Y013142D01*
X013593Y013331D01*
X013448Y013476D01*
X013259Y013554D01*
X013055Y013554D01*
X012866Y013476D01*
X012721Y013331D01*
X012643Y013142D01*
X012643Y012938D01*
X012721Y012749D01*
X012866Y012604D01*
X013055Y012526D01*
X013259Y012526D01*
X013448Y012604D01*
X013593Y012749D01*
X013617Y012807D02*
X034919Y012807D01*
X034849Y012926D02*
X013667Y012926D01*
X013671Y013045D02*
X034817Y013045D01*
X034817Y013163D02*
X020162Y013163D01*
X020135Y013152D02*
X020278Y013211D01*
X021729Y014662D01*
X031301Y014662D01*
X031311Y014652D01*
X031643Y014652D01*
X031877Y014886D01*
X031877Y015218D01*
X031643Y015452D01*
X031311Y015452D01*
X031301Y015442D01*
X021645Y015442D01*
X021489Y015442D01*
X021346Y015382D01*
X019726Y013763D01*
X019667Y013619D01*
X019667Y013464D01*
X019726Y013321D01*
X019836Y013211D01*
X019979Y013152D01*
X020135Y013152D01*
X019952Y013163D02*
X013663Y013163D01*
X013614Y013282D02*
X019766Y013282D01*
X019694Y013400D02*
X013524Y013400D01*
X013345Y013519D02*
X019667Y013519D01*
X019674Y013637D02*
X009903Y013637D01*
X009915Y013609D02*
X009848Y013771D01*
X009724Y013894D01*
X009562Y013961D01*
X008787Y013961D01*
X008626Y013894D01*
X008502Y013771D01*
X008435Y013609D01*
X008435Y013434D01*
X008502Y013272D01*
X008626Y013148D01*
X008787Y013081D01*
X009562Y013081D01*
X009724Y013148D01*
X009848Y013272D01*
X009915Y013434D01*
X009915Y013609D01*
X009915Y013519D02*
X012969Y013519D01*
X012790Y013400D02*
X009901Y013400D01*
X009852Y013282D02*
X012701Y013282D01*
X012651Y013163D02*
X009739Y013163D01*
X009854Y013756D02*
X019724Y013756D01*
X019838Y013874D02*
X009744Y013874D01*
X009635Y014111D02*
X020075Y014111D01*
X019957Y013993D02*
X002442Y013993D01*
X002447Y014111D02*
X008715Y014111D01*
X008787Y014081D02*
X008626Y014148D01*
X008502Y014272D01*
X008435Y014434D01*
X008435Y014609D01*
X008502Y014771D01*
X008626Y014894D01*
X008787Y014961D01*
X009562Y014961D01*
X009724Y014894D01*
X009848Y014771D01*
X009915Y014609D01*
X009915Y014434D01*
X009848Y014272D01*
X009724Y014148D01*
X009562Y014081D01*
X008787Y014081D01*
X008606Y013874D02*
X002393Y013874D01*
X002293Y013756D02*
X008496Y013756D01*
X008447Y013637D02*
X001067Y013637D01*
X001067Y013519D02*
X001288Y013519D01*
X001093Y013400D02*
X001067Y013400D01*
X001067Y013756D02*
X001121Y013756D01*
X002126Y013519D02*
X008435Y013519D01*
X008449Y013400D02*
X002321Y013400D01*
X002405Y013282D02*
X008498Y013282D01*
X008611Y013163D02*
X002447Y013163D01*
X002447Y013045D02*
X012643Y013045D01*
X012648Y012926D02*
X002415Y012926D01*
X002345Y012807D02*
X012697Y012807D01*
X012781Y012689D02*
X002184Y012689D01*
X001230Y012689D02*
X001067Y012689D01*
X001067Y012807D02*
X001069Y012807D01*
X001067Y012570D02*
X012947Y012570D01*
X013368Y012570D02*
X036187Y012570D01*
X036187Y012452D02*
X036119Y012452D01*
X036187Y012689D02*
X036034Y012689D01*
X036171Y013400D02*
X036187Y013400D01*
X036187Y013519D02*
X035976Y013519D01*
X036187Y013637D02*
X024024Y013637D01*
X024009Y013601D02*
X024060Y013725D01*
X024060Y013859D01*
X024009Y013983D01*
X023914Y014078D01*
X023790Y014129D01*
X023656Y014129D01*
X023532Y014078D01*
X023437Y013983D01*
X023386Y013859D01*
X023386Y013725D01*
X023437Y013601D01*
X023532Y013506D01*
X023656Y013455D01*
X023790Y013455D01*
X023914Y013506D01*
X024009Y013601D01*
X023927Y013519D02*
X035138Y013519D01*
X034943Y013400D02*
X020467Y013400D01*
X020348Y013282D02*
X034859Y013282D01*
X034971Y013756D02*
X024060Y013756D01*
X024054Y013874D02*
X034871Y013874D01*
X034822Y013993D02*
X023999Y013993D01*
X023833Y014111D02*
X034817Y014111D01*
X034838Y014230D02*
X021297Y014230D01*
X021415Y014349D02*
X034891Y014349D01*
X035013Y014467D02*
X021534Y014467D01*
X021652Y014586D02*
X036187Y014586D01*
X036187Y014704D02*
X036071Y014704D01*
X036101Y014467D02*
X036187Y014467D01*
X036187Y013756D02*
X036143Y013756D01*
X034259Y014704D02*
X031695Y014704D01*
X031814Y014823D02*
X034141Y014823D01*
X034077Y014941D02*
X031877Y014941D01*
X031877Y015060D02*
X034077Y015060D01*
X034077Y015178D02*
X031877Y015178D01*
X031798Y015297D02*
X034156Y015297D01*
X034275Y015415D02*
X031679Y015415D01*
X036156Y015415D02*
X036187Y015415D01*
X036187Y015534D02*
X001067Y015534D01*
X001067Y015653D02*
X036187Y015653D01*
X036128Y011741D02*
X036187Y011741D01*
X034986Y011741D02*
X002278Y011741D01*
X001145Y012452D02*
X001067Y012452D01*
X002426Y014230D02*
X004276Y014230D01*
X004304Y014202D02*
X004478Y014202D01*
X004578Y014302D01*
X004677Y014202D01*
X004851Y014202D01*
X004947Y014297D01*
X004948Y014295D01*
X005042Y014202D01*
X005216Y014202D01*
X005403Y014202D01*
X005496Y014295D01*
X005619Y014418D01*
X005619Y014762D01*
X005657Y014762D01*
X005657Y014325D01*
X005780Y014202D01*
X005954Y014202D01*
X006077Y014325D01*
X006077Y014762D01*
X006140Y014762D01*
X006189Y014811D01*
X006237Y014762D01*
X006301Y014762D01*
X006301Y014325D01*
X006424Y014202D01*
X006598Y014202D01*
X006721Y014325D01*
X006721Y014762D01*
X006759Y014762D01*
X006759Y014418D01*
X006882Y014295D01*
X006975Y014202D01*
X007149Y014202D01*
X007336Y014202D01*
X007459Y014325D01*
X007478Y014344D01*
X007497Y014325D01*
X007620Y014202D01*
X008074Y014202D01*
X008197Y014325D01*
X008197Y014499D01*
X008197Y014605D01*
X008197Y014779D01*
X008197Y014885D01*
X008197Y015059D01*
X008074Y015182D01*
X007794Y015182D01*
X007620Y015182D01*
X007547Y015109D01*
X007497Y015059D01*
X007478Y015040D01*
X007459Y015059D01*
X007459Y015059D01*
X007409Y015109D01*
X007336Y015182D01*
X007162Y015182D01*
X007149Y015182D01*
X006975Y015182D01*
X006896Y015103D01*
X006880Y015087D01*
X006785Y015182D01*
X006237Y015182D01*
X006189Y015134D01*
X006140Y015182D01*
X005593Y015182D01*
X005498Y015087D01*
X005476Y015109D01*
X005403Y015182D01*
X005229Y015182D01*
X005042Y015182D01*
X005042Y015182D01*
X005000Y015141D01*
X004947Y015087D01*
X004912Y015122D01*
X004851Y015182D01*
X004677Y015182D01*
X004578Y015082D01*
X004478Y015182D01*
X004478Y015182D01*
X004304Y015182D01*
X004241Y015120D01*
X004181Y015059D01*
X004181Y014325D01*
X004304Y014202D01*
X004181Y014349D02*
X002373Y014349D01*
X002251Y014467D02*
X004181Y014467D01*
X004181Y014586D02*
X001067Y014586D01*
X001067Y014704D02*
X001193Y014704D01*
X001163Y014467D02*
X001067Y014467D01*
X002221Y014704D02*
X004181Y014704D01*
X004181Y014823D02*
X002360Y014823D01*
X002421Y014941D02*
X004181Y014941D01*
X004181Y015059D02*
X004181Y015059D01*
X004181Y015060D02*
X002447Y015060D01*
X002447Y015178D02*
X004300Y015178D01*
X004482Y015178D02*
X004673Y015178D01*
X004851Y015182D02*
X004851Y015182D01*
X004855Y015178D02*
X005038Y015178D01*
X005407Y015178D02*
X005589Y015178D01*
X006144Y015178D02*
X006233Y015178D01*
X006301Y014704D02*
X006077Y014704D01*
X006077Y014586D02*
X006301Y014586D01*
X006301Y014467D02*
X006077Y014467D01*
X006077Y014349D02*
X006301Y014349D01*
X006396Y014230D02*
X005982Y014230D01*
X005752Y014230D02*
X005431Y014230D01*
X005496Y014295D02*
X005496Y014295D01*
X005549Y014349D02*
X005657Y014349D01*
X005657Y014467D02*
X005619Y014467D01*
X005619Y014586D02*
X005657Y014586D01*
X005657Y014704D02*
X005619Y014704D01*
X005014Y014230D02*
X004879Y014230D01*
X004649Y014230D02*
X004506Y014230D01*
X006626Y014230D02*
X006947Y014230D01*
X006829Y014349D02*
X006721Y014349D01*
X006721Y014467D02*
X006759Y014467D01*
X006759Y014586D02*
X006721Y014586D01*
X006721Y014704D02*
X006759Y014704D01*
X006789Y015178D02*
X006971Y015178D01*
X007340Y015178D02*
X007616Y015178D01*
X007497Y015060D02*
X007459Y015060D01*
X007497Y015059D02*
X007497Y015059D01*
X008078Y015178D02*
X012852Y015178D01*
X012888Y015214D02*
X012754Y015081D01*
X012682Y014906D01*
X012682Y014717D01*
X012754Y014543D01*
X012888Y014409D01*
X013063Y014337D01*
X013252Y014337D01*
X013426Y014409D01*
X013560Y014543D01*
X013632Y014717D01*
X013632Y014906D01*
X013560Y015081D01*
X013426Y015214D01*
X013252Y015286D01*
X013063Y015286D01*
X012888Y015214D01*
X012746Y015060D02*
X008197Y015060D01*
X008197Y014941D02*
X008739Y014941D01*
X008554Y014823D02*
X008197Y014823D01*
X008197Y014704D02*
X008474Y014704D01*
X008435Y014586D02*
X008197Y014586D01*
X008197Y014467D02*
X008435Y014467D01*
X008470Y014349D02*
X008197Y014349D01*
X008102Y014230D02*
X008544Y014230D01*
X007592Y014230D02*
X007364Y014230D01*
X009611Y014941D02*
X012697Y014941D01*
X012682Y014823D02*
X009796Y014823D01*
X009875Y014704D02*
X012687Y014704D01*
X012737Y014586D02*
X009915Y014586D01*
X009915Y014467D02*
X012830Y014467D01*
X013034Y014349D02*
X009879Y014349D01*
X009806Y014230D02*
X020194Y014230D01*
X020312Y014349D02*
X013280Y014349D01*
X013484Y014467D02*
X020431Y014467D01*
X020549Y014586D02*
X013578Y014586D01*
X013627Y014704D02*
X020668Y014704D01*
X020786Y014823D02*
X013632Y014823D01*
X013617Y014941D02*
X020905Y014941D01*
X021023Y015060D02*
X013568Y015060D01*
X013462Y015178D02*
X021142Y015178D01*
X021261Y015297D02*
X002398Y015297D01*
X002306Y015415D02*
X021426Y015415D01*
X021178Y014111D02*
X021881Y014111D01*
X021924Y014129D02*
X021800Y014078D01*
X021705Y013983D01*
X021654Y013859D01*
X021654Y013725D01*
X021705Y013601D01*
X021800Y013506D01*
X021924Y013455D01*
X022058Y013455D01*
X022182Y013506D01*
X022277Y013601D01*
X022328Y013725D01*
X022328Y013859D01*
X022277Y013983D01*
X022182Y014078D01*
X022058Y014129D01*
X021924Y014129D01*
X022100Y014111D02*
X023614Y014111D01*
X023447Y013993D02*
X022267Y013993D01*
X022322Y013874D02*
X023392Y013874D01*
X023386Y013756D02*
X022328Y013756D01*
X022292Y013637D02*
X023422Y013637D01*
X023520Y013519D02*
X022195Y013519D01*
X021787Y013519D02*
X020585Y013519D01*
X020704Y013637D02*
X021690Y013637D01*
X021654Y013756D02*
X020823Y013756D01*
X020941Y013874D02*
X021660Y013874D01*
X021715Y013993D02*
X021060Y013993D01*
X021193Y006169D02*
X034817Y006169D01*
X034817Y006051D02*
X021378Y006051D01*
X021449Y005932D02*
X034847Y005932D01*
X034913Y005813D02*
X021475Y005813D01*
X021467Y005695D02*
X035066Y005695D01*
X035001Y005458D02*
X021297Y005458D01*
X021418Y005576D02*
X036187Y005576D01*
X036187Y005458D02*
X036113Y005458D01*
X036048Y005695D02*
X036187Y005695D01*
X036187Y002731D02*
X035940Y002731D01*
X036007Y002613D02*
X036187Y002613D01*
X036187Y002494D02*
X036007Y002494D01*
X036007Y002376D02*
X036187Y002376D01*
X036187Y002257D02*
X035965Y002257D01*
X035846Y002139D02*
X036187Y002139D01*
X034786Y001901D02*
X034770Y001901D01*
X034779Y001072D02*
X034847Y001072D01*
X036113Y009725D02*
X036187Y009725D01*
X017595Y005458D02*
X005997Y005458D01*
X005817Y005458D02*
X005777Y005458D01*
X005777Y005339D02*
X005817Y005339D01*
X005817Y005221D02*
X005777Y005221D01*
X005777Y005102D02*
X003197Y005102D01*
X003197Y004984D02*
X005397Y004984D01*
X005458Y004865D02*
X003136Y004865D01*
X003197Y005221D02*
X005397Y005221D01*
X005479Y005339D02*
X003115Y005339D01*
X002997Y005458D02*
X005597Y005458D01*
X005904Y004391D02*
X004710Y004391D01*
X004804Y004272D02*
X005808Y004272D01*
X005759Y004154D02*
X004848Y004154D01*
X004857Y004035D02*
X005757Y004035D01*
X005757Y003917D02*
X004857Y003917D01*
X004457Y003917D02*
X004377Y003917D01*
X004377Y004035D02*
X004457Y004035D01*
X004457Y004154D02*
X004377Y004154D01*
X004377Y004272D02*
X004457Y004272D01*
X004457Y004391D02*
X004377Y004391D01*
X004124Y004391D02*
X003780Y004391D01*
X003876Y004272D02*
X004031Y004272D01*
X003986Y004154D02*
X003925Y004154D01*
X003927Y004035D02*
X003977Y004035D01*
X003977Y003917D02*
X003927Y003917D01*
X004377Y003680D02*
X004457Y003680D01*
X004457Y003561D02*
X004377Y003561D01*
X004377Y003443D02*
X004457Y003443D01*
X004457Y003324D02*
X004377Y003324D01*
X004377Y003205D02*
X004457Y003205D01*
X004457Y003087D02*
X004377Y003087D01*
X001067Y002731D02*
X012294Y002731D01*
X012934Y002376D02*
X013376Y002376D01*
X013583Y002257D02*
X013053Y002257D01*
X013171Y002139D02*
X013791Y002139D01*
X013998Y002020D02*
X013290Y002020D01*
X013409Y001901D02*
X014206Y001901D01*
X014413Y001783D02*
X013527Y001783D01*
X013646Y001664D02*
X014621Y001664D01*
X014828Y001546D02*
X013764Y001546D01*
X001114Y008421D02*
X001067Y008421D01*
X001067Y015415D02*
X001108Y015415D01*
D17*
X015357Y007992D03*
X017807Y005792D03*
X021085Y005792D03*
X022557Y007992D03*
X028507Y003342D03*
X029457Y002242D03*
X031407Y001492D03*
X030757Y000992D03*
X030117Y000562D03*
X032207Y003492D03*
X018557Y001892D03*
X012507Y002492D03*
X010857Y002492D03*
X018807Y014142D03*
D18*
X020057Y013542D03*
X020107Y009742D03*
X026457Y008942D03*
X027357Y008942D03*
X027857Y010142D03*
X026907Y010542D03*
X027357Y010942D03*
X026457Y011342D03*
X029907Y010342D03*
X031107Y010842D03*
X032157Y009842D03*
X030457Y009342D03*
X029857Y009342D03*
X030657Y008842D03*
X029257Y007342D03*
X029157Y004292D03*
X033107Y003942D03*
X025057Y003542D03*
X025057Y002692D03*
X013207Y008492D03*
X011807Y008942D03*
X010657Y007992D03*
X008907Y009342D03*
X007207Y010142D03*
X006807Y010542D03*
X006607Y011342D03*
X005507Y010892D03*
X004907Y010392D03*
X005507Y009892D03*
D19*
X005657Y009742D01*
X020107Y009742D01*
X029307Y009742D01*
X029907Y010342D01*
X029507Y010542D02*
X029807Y010842D01*
X031107Y010842D01*
X029507Y010542D02*
X026907Y010542D01*
X006807Y010542D01*
X007207Y010142D02*
X027857Y010142D01*
X027357Y010942D02*
X005557Y010942D01*
X005507Y010892D01*
X006607Y011342D02*
X026457Y011342D01*
X029857Y009342D02*
X008907Y009342D01*
X011807Y008942D02*
X025857Y008942D01*
X026657Y008142D01*
X028457Y008142D01*
X029257Y007342D01*
X030357Y008542D02*
X026857Y008542D01*
X026457Y008942D01*
X027357Y008942D02*
X030057Y008942D01*
X030457Y009342D01*
X030657Y008842D02*
X030357Y008542D01*
D20*
X021085Y005792D02*
X017807Y005792D01*
X020057Y013542D02*
X021567Y015052D01*
X031477Y015052D01*
X034477Y015052D02*
X035557Y015052D01*
X035557Y015092D01*
X002797Y005092D02*
X001707Y005092D01*
X002677Y005062D02*
X002797Y005092D01*
D21*
X004157Y002292D02*
X009307Y002292D01*
X010607Y000992D01*
X029557Y000992D01*
X030057Y001492D01*
X031407Y001492D01*
X030757Y000992D02*
X029907Y000992D01*
X029657Y000742D01*
X010457Y000742D01*
X009157Y002042D01*
X006607Y002042D01*
X006197Y001632D01*
X006197Y001202D01*
X004157Y002292D02*
X003487Y001622D01*
X003487Y001202D01*
X008877Y001202D02*
X009627Y001202D01*
X010337Y000492D01*
X030047Y000492D01*
X030117Y000562D01*
X030117Y000482D01*
X035067Y000482D01*
X035067Y001922D01*
X034567Y002462D01*
X034567Y002482D01*
X033107Y003942D02*
X029507Y003942D01*
X029157Y004292D01*
X029457Y002242D02*
X029475Y002224D01*
X029475Y001622D01*
X029095Y001242D01*
X013757Y001242D01*
X012507Y002492D01*
X020057Y013542D02*
X019971Y013628D01*
D22*
X034477Y015052D02*
X034537Y015062D01*
M02*
