G75*
G70*
%OFA0B0*%
%FSLAX24Y24*%
%IPPOS*%
%LPD*%
%AMOC8*
5,1,8,0,0,1.08239X$1,22.5*
%
%ADD10R,0.0680X0.0680*%
%ADD11OC8,0.0680*%
%ADD12OC8,0.0600*%
%ADD13C,0.0600*%
%ADD14C,0.0680*%
%ADD15C,0.0710*%
%ADD16C,0.0789*%
%ADD17C,0.0434*%
%ADD18C,0.0440*%
%ADD19C,0.0476*%
D10*
X035567Y001482D03*
D11*
X034567Y001482D03*
X034567Y002482D03*
X035567Y002482D03*
X035567Y003482D03*
X034567Y003482D03*
D12*
X034477Y015052D03*
X031477Y015052D03*
X005797Y005092D03*
X002797Y005092D03*
D13*
X025867Y004062D03*
X025867Y002162D03*
D14*
X001707Y001502D02*
X001707Y000902D01*
X003487Y000902D02*
X003487Y001502D01*
X004417Y001502D02*
X004417Y000902D01*
X006197Y000902D02*
X006197Y001502D01*
X007097Y001502D02*
X007097Y000902D01*
X008877Y000902D02*
X008877Y001502D01*
X008877Y003462D02*
X008877Y004062D01*
X007097Y004062D02*
X007097Y003462D01*
X006197Y003462D02*
X006197Y004062D01*
X004417Y004062D02*
X004417Y003462D01*
X003487Y003462D02*
X003487Y004062D01*
X001707Y004062D02*
X001707Y003462D01*
X002007Y005092D02*
X001407Y005092D01*
X001407Y006092D02*
X002007Y006092D01*
X002007Y007092D02*
X001407Y007092D01*
X001407Y008092D02*
X002007Y008092D01*
X002007Y009092D02*
X001407Y009092D01*
X001407Y010092D02*
X002007Y010092D01*
X002007Y011092D02*
X001407Y011092D01*
X001407Y012092D02*
X002007Y012092D01*
X002007Y013092D02*
X001407Y013092D01*
X001407Y014092D02*
X002007Y014092D01*
X002007Y015092D02*
X001407Y015092D01*
X008875Y014521D02*
X009475Y014521D01*
X009475Y013521D02*
X008875Y013521D01*
X035257Y013092D02*
X035857Y013092D01*
X035857Y014092D02*
X035257Y014092D01*
X035257Y015092D02*
X035857Y015092D01*
X035857Y012092D02*
X035257Y012092D01*
X035257Y011092D02*
X035857Y011092D01*
X035857Y010092D02*
X035257Y010092D01*
X035257Y009092D02*
X035857Y009092D01*
X035857Y008092D02*
X035257Y008092D01*
X035257Y007092D02*
X035857Y007092D01*
X035857Y006092D02*
X035257Y006092D01*
X035257Y005092D02*
X035857Y005092D01*
D15*
X013157Y014812D03*
D16*
X013157Y013040D03*
D17*
X021991Y013792D03*
X023723Y013792D03*
D18*
X018807Y014142D03*
X015357Y007992D03*
X017807Y005792D03*
X021085Y005792D03*
X022557Y007992D03*
X028507Y003342D03*
X029457Y002242D03*
X031407Y001492D03*
X030757Y000992D03*
X030117Y000562D03*
X032207Y003492D03*
X018557Y001892D03*
X012507Y002492D03*
X010857Y002492D03*
D19*
X010657Y007992D03*
X011807Y008942D03*
X013207Y008492D03*
X008907Y009342D03*
X007207Y010142D03*
X006807Y010542D03*
X006607Y011342D03*
X005507Y010892D03*
X004907Y010392D03*
X005507Y009892D03*
X020107Y009742D03*
X020057Y013542D03*
X026457Y011342D03*
X027357Y010942D03*
X026907Y010542D03*
X027857Y010142D03*
X027357Y008942D03*
X026457Y008942D03*
X029257Y007342D03*
X030657Y008842D03*
X030457Y009342D03*
X029857Y009342D03*
X029907Y010342D03*
X031107Y010842D03*
X032157Y009842D03*
X029157Y004292D03*
X033107Y003942D03*
X025057Y003542D03*
X025057Y002692D03*
M02*
